<?xml version="1.0" encoding="UTF-8" standalone="no"?>
<!-- Generator: Gravit.io -->
<svg xmlns="http://www.w3.org/2000/svg" xmlns:xlink="http://www.w3.org/1999/xlink" style="isolation:isolate" viewBox="132.726 73.92 400 400" width="400pt" height="400pt"><g><clipPath id="_clipPath_VM1QmyUmkytH1Fxhoapm6bkXh3SbsRfj"><path d=" M 132.726 73.92 L 132.726 473.92 L 532.726 473.92 L 532.726 73.92 L 132.726 73.92 Z " fill="rgb(255,255,255)"/></clipPath><g clip-path="url(#_clipPath_VM1QmyUmkytH1Fxhoapm6bkXh3SbsRfj)"><path d=" M 392.106 432.75 C 379.056 432.75 366.566 432.51 355.076 432.08 L 348.976 430.63 L 363.721 423.099 L 411.976 425.95 L 415.059 423.825 L 415.059 430.627 L 424.726 422.472 L 434.393 414.317 L 434.393 413.485 C 470.207 415.063 495.136 418.585 495.136 422.68 C 495.136 428.24 449.006 432.75 392.106 432.75 Z  M 382.84 413.333 L 384.216 412.63 C 384.419 412.628 384.622 412.627 384.825 412.626 L 382.84 413.333 Z " fill="rgb(220,222,221)"/><path d=" M 433.32 411.236 L 446.399 373.501 L 405.559 372.063 L 393.351 409.587 L 356.615 422.679 L 411.976 425.95 L 433.32 411.236 Z " fill="rgb(185,53,56)"/><path d=" M 401.601 370.045 L 392.101 408.795 L 393.971 411.236 L 407.226 372.545 L 456.726 373.753 L 449.778 366.004 L 401.601 370.045 Z " fill="rgb(137,48,49)"/><path d=" M 355.976 418.11 L 392.101 408.795 L 434.393 409.587 L 434.393 414.316 L 393.101 411.17 L 356.851 424.368 L 355.976 418.11 Z " fill="rgb(137,48,49)"/><path d=" M 415.059 430.627 L 415.059 419.679 L 345.976 418.11 L 348.976 430.627 L 415.059 430.627 Z " fill="rgb(185,53,56)"/><path d=" M 415.059 423.253 L 434.393 409.587 L 434.393 414.317 L 415.059 430.627 L 415.059 423.253 Z " fill="rgb(137,48,49)"/><path d=" M 415.059 430.627 L 415.871 429.942 L 415.871 418.11 L 348.476 417.67 L 345.976 418.11 L 415.059 419.679 L 415.059 430.627 Z " fill="rgb(198,78,77)"/><path d=" M 415.871 429.942 L 415.871 422.679 L 418.984 420.48 L 424.726 422.472 L 415.871 429.942 Z " fill="rgb(117,45,46)"/><path d=" M 415.872 421.087 L 432.393 410.253 L 434.393 409.587 L 415.872 422.679 L 415.872 421.087 Z " fill="rgb(198,78,77)"/><path d=" M 433.281 410.373 C 433.281 410.373 437.924 395.246 441.601 385.42 C 446.184 373.17 450.601 364.295 450.601 364.295 L 456.726 373.753 L 434.393 414.316 L 433.281 410.373 Z " fill="rgb(137,48,49)"/><path d=" M 449.778 366.004 L 401.601 370.92 L 401.601 370.045 L 450.601 364.295 L 449.778 366.004 Z " fill="rgb(198,78,77)"/><path d=" M 446.399 373.501 L 449.778 366.004 L 401.601 370.92 L 407.226 372.545 L 446.399 373.501 Z " fill="rgb(131,47,48)"/><path d=" M 432.393 410.253 C 432.393 410.253 435.414 398.67 439.789 387.108 C 444.164 375.545 448.922 364.492 448.922 364.492 L 450.601 364.295 C 450.601 364.295 445.101 376.888 441.226 387.409 C 437.351 397.93 433.281 410.373 433.281 410.373 L 432.393 410.253 Z " fill="rgb(198,78,77)"/><path d=" M 399.871 411.823 L 381.372 413.694 L 379.414 415.653 L 382.732 416.111 L 400.164 412.758 L 399.871 411.823 Z " fill="rgb(207,191,189)"/><path d=" M 400.289 415.061 C 400.289 415.061 399.455 409.91 399.955 409.678 C 400.455 409.444 402.205 411.041 402.205 411.041 L 402.539 412.758 C 402.539 412.758 401.539 415.447 400.289 415.061 Z " fill="rgb(248,242,152)"/><path d=" M 401.539 411.611 C 401.539 411.611 411.414 406.361 412.039 406.361 C 412.664 406.361 414.476 410.736 413.789 411.611 C 413.101 412.486 402.164 412.758 402.164 412.758 L 401.539 411.611 Z " fill="rgb(248,242,152)"/><path d=" M 419.646 415.1 C 419.646 415.1 416.536 418.16 415.056 417.5 C 413.556 416.84 412.976 415.38 412.976 415.38 L 409.806 416.45 L 406.455 417.58 L 405.016 418.07 L 398.896 417.95 L 407.606 415.54 L 410.476 414.75 L 412.726 414.13 C 412.726 414.13 412.006 412.46 412.726 411.04 C 413.686 409.15 418.686 410.54 418.686 410.54 L 418.726 411 C 418.726 411 414.726 411.82 415.476 413.97 C 416.226 416.11 419.346 414.32 419.346 414.32 L 419.646 415.1 Z " fill="rgb(207,191,189)"/><path d=" M 419.646 415.1 C 419.646 415.1 416.536 418.16 415.056 417.5 C 413.556 416.84 412.976 415.38 412.976 415.38 L 409.806 416.45 L 410.476 414.75 L 412.726 414.13 C 412.726 414.13 412.006 412.46 412.726 411.04 C 413.686 409.15 418.686 410.54 418.686 410.54 L 418.726 411 C 418.726 411 414.726 411.82 415.476 413.97 C 416.226 416.11 419.346 414.32 419.346 414.32 L 419.646 415.1 Z " fill="rgb(152,172,151)"/><path d=" M 407.606 415.54 L 406.455 417.58 L 405.016 418.07 L 398.896 417.95 L 407.606 415.54 Z " fill="rgb(152,172,151)"/><path d=" M 465.426 264.28 L 358.7 230.883 L 348.51 214.107 L 417.165 226.28 L 402.819 180.713 L 444.514 155.074 L 464.211 171.737 L 465.426 264.28 Z " fill="rgb(215,244,255)"/><path d=" M 290.196 227.72 C 288.316 229.71 250.926 235.11 249.276 233.7 C 247.636 232.29 227.145 197.49 232.666 192.93 C 234.756 191.2 238.906 190.15 243.006 189.52 C 248.656 188.65 254.206 188.57 254.206 188.57 C 254.206 188.57 255.736 190.98 259.316 190.63 C 262.886 190.28 262.336 187.75 262.336 187.75 C 262.336 187.75 274.956 185.4 275.836 185.75 C 276.136 185.87 278.146 190.63 280.586 196.9 C 283.446 204.28 286.896 213.77 288.836 220.27 C 290.046 224.33 290.666 227.22 290.196 227.72 Z " fill="rgb(250,177,58)"/><path d=" M 288.696 194.71 L 280.586 196.9 L 279.496 197.2 L 278.056 197.59 L 246.396 192.59 L 243.006 189.52 C 248.656 188.65 254.206 188.57 254.206 188.57 C 254.206 188.57 255.736 190.98 259.316 190.63 C 262.886 190.28 262.336 187.75 262.336 187.75 C 262.336 187.75 274.956 185.4 275.836 185.75 C 275.836 185.75 278.526 184.11 281.316 186.34 C 282.376 187.2 285.296 190.7 288.696 194.71 Z " fill="rgb(219,131,57)"/><path d=" M 316.446 227.73 C 315.226 231.84 313.116 234.66 309.656 234.87 C 300.936 235.39 293.296 226.74 288.836 220.27 C 286.206 216.47 284.686 213.42 284.686 213.42 L 279.496 197.2 L 275.836 185.75 C 275.836 185.75 278.526 184.11 281.316 186.34 C 282.376 187.2 285.296 190.7 288.696 194.71 C 294.216 201.18 301.026 208.96 303.426 208.96 C 307.306 208.96 298.036 191.43 298.036 191.43 L 315.756 191.43 C 315.756 191.43 317.506 201.12 317.856 211.35 C 318.046 217.2 317.776 223.23 316.446 227.73 Z " fill="rgb(247,157,59)"/><path d=" M 316.446 227.73 C 315.296 226.14 312.496 223.14 306.786 221.23 C 298.716 218.55 289.196 219.62 289.196 219.62 L 287.256 213.29 L 317.716 211.2 L 317.856 211.35 C 318.046 217.2 317.776 223.23 316.446 227.73 Z " fill="rgb(219,131,57)"/><path d=" M 417.165 226.28 L 338.054 212.254 L 319.344 166.079 L 399.664 170.691 L 417.165 226.28 Z " fill="rgb(188,227,248)"/><path d=" M 358.7 194.754 L 364.226 214.42 L 339.177 210.032 L 333.226 192.46 L 358.7 194.754 Z " fill="rgb(51,79,128)"/><path d=" M 438.664 226.28 L 417.164 226.28 L 399.664 170.691 L 402.664 165.816 L 444.514 155.074 L 438.664 226.28 Z " fill="rgb(140,162,210)"/><path d=" M 444.514 155.074 L 348.435 154.522 L 321.337 161.805 L 319.344 166.079 L 399.664 170.691 L 402.664 165.816 L 444.514 155.074 Z " fill="rgb(135,195,234)"/><path d=" M 399.664 170.691 L 402.664 165.816 L 321.337 161.805 L 319.344 166.079 L 399.664 170.691 Z " fill="rgb(208,234,228)"/><path d=" M 441.755 155.524 L 405.393 124.906 L 398.059 125.639 L 372.976 161.463 L 304.548 157.125 L 329.085 124.906 L 336.726 124.906 L 409.393 122.812 L 444.514 155.074 L 441.755 155.524 Z " fill="rgb(172,224,249)"/><path d=" M 441.991 155.722 L 405.393 124.906 L 398.059 125.639 L 377.718 154.69 L 441.991 155.722 Z " fill="rgb(101,124,187)"/><path d=" M 377.741 154.691 L 377.718 154.69 L 377.718 154.69 L 377.741 154.691 Z " fill="rgb(136,124,185)"/><path d=" M 372.976 162.174 L 377.718 154.69 L 377.741 154.691 L 429.726 155.525 L 372.976 162.174 Z " fill="rgb(92,108,177)"/><path d=" M 444.514 155.074 L 409.393 122.812 L 395.393 124.906 L 371.559 161.463 L 372.976 162.174 L 398.059 125.639 L 405.393 124.906 L 441.991 155.722 L 444.514 155.074 Z " fill="rgb(140,162,210)"/><path d=" M 366.417 215.032 L 360.871 195.414 L 403.69 200.771 L 410.893 223.12 L 366.417 215.032 Z " fill="rgb(51,79,128)"/><path d=" M 322.778 171.24 L 395.976 175.33 L 401.392 190.489 L 326.671 182.606 L 322.778 171.24 Z " fill="rgb(51,79,128)"/><path d=" M 334.227 195.414 L 405.079 205.081 L 405.307 205.789 L 334.713 197.589 L 334.227 195.414 Z " fill="rgb(188,227,248)"/><path d=" M 407.488 211.556 L 335.893 200.829 L 335.893 201.753 L 408.088 213.42 L 407.488 211.556 Z " fill="rgb(188,227,248)"/><path d=" M 337.851 207.614 L 408.818 216.681 L 408.954 217.105 L 337.851 208.858 L 337.851 207.614 Z " fill="rgb(188,227,248)"/><path d=" M 398.559 180.126 L 322.771 174.536 L 323.11 175.373 L 399.309 180.745 L 398.559 180.126 Z " fill="rgb(188,227,248)"/><path d=" M 400.559 183.675 L 324.632 179.128 L 325.204 180.542 L 400.559 184.42 L 400.559 183.675 Z " fill="rgb(188,227,248)"/><path d=" M 361.297 216.375 L 338.054 212.254 L 319.344 166.079 L 369.767 168.974 L 368.902 173.817 L 322.778 171.24 L 323.936 174.622 L 322.771 174.536 L 323.11 175.373 L 324.22 175.451 L 325.498 179.18 L 324.632 179.128 L 325.204 180.542 L 325.978 180.582 L 326.671 182.606 L 366.579 186.816 L 364.951 195.924 L 360.871 195.414 L 361.94 199.195 L 359.868 198.912 L 358.7 194.754 L 333.226 192.46 L 334.228 195.419 L 334.713 197.589 L 334.973 197.619 L 336.069 200.855 L 335.893 200.829 L 335.893 201.753 L 336.401 201.836 L 338.381 207.682 L 337.851 207.614 L 337.851 208.858 L 338.817 208.97 L 339.177 210.032 L 361.725 213.982 L 361.297 216.375 Z  M 362.649 208.809 L 361.845 205.947 L 363.124 206.154 L 362.649 208.809 Z  M 363.34 204.941 L 361.484 204.663 L 360.333 200.565 L 362.395 200.804 L 363.427 204.456 L 363.34 204.941 Z " fill="rgb(123,145,201)"/><path d=" M 361.725 213.982 L 339.177 210.032 L 338.817 208.97 L 362.137 211.674 L 361.725 213.982 Z  M 362.304 210.738 L 338.381 207.682 L 336.401 201.836 L 361.845 205.947 L 362.649 208.809 L 362.304 210.738 Z  M 361.484 204.663 L 336.069 200.855 L 334.973 197.619 L 360.333 200.565 L 361.484 204.663 Z  M 359.868 198.912 L 334.227 195.414 L 334.228 195.419 L 333.226 192.46 L 358.7 194.754 L 359.868 198.912 Z " fill="rgb(56,72,126)"/><path d=" M 365.223 163.969 L 355.549 163.492 L 358.765 161.478 L 365.223 163.969 L 365.223 163.969 Z " fill="rgb(96,130,192)"/><path d=" M 369.767 168.974 L 319.344 166.079 L 348.726 167.766 L 355.549 163.492 L 365.223 163.969 L 369.767 168.974" fill="rgb(130,158,200)"/><path d=" M 363.427 204.456 L 362.395 200.804 L 364.045 200.996 L 363.427 204.456 Z  M 364.309 199.518 L 361.94 199.195 L 360.871 195.414 L 364.951 195.924 L 364.309 199.518 Z " fill="rgb(56,72,126)"/><path d=" M 366.579 186.816 L 326.671 182.606 L 325.978 180.582 L 367.313 182.709 L 366.579 186.816 Z  M 367.494 181.695 L 325.498 179.18 L 324.22 175.451 L 368.057 178.542 L 367.494 181.695 Z  M 368.175 177.885 L 323.936 174.622 L 322.778 171.24 L 368.902 173.817 L 368.175 177.885 Z " fill="rgb(56,72,126)"/><path d=" M 364.045 200.996 L 362.395 200.804 L 360.333 200.565 L 334.973 197.619 L 334.713 197.589 L 334.228 195.419 L 334.227 195.414 L 359.868 198.912 L 361.94 199.195 L 364.309 199.518 L 364.045 200.996 Z " fill="rgb(123,145,201)"/><path d=" M 363.124 206.154 L 361.845 205.947 L 336.401 201.836 L 335.893 201.753 L 335.893 200.829 L 336.069 200.855 L 361.484 204.663 L 363.34 204.941 L 363.124 206.154 Z " fill="rgb(123,145,201)"/><path d=" M 362.137 211.674 L 338.817 208.97 L 337.851 208.858 L 337.851 207.614 L 338.381 207.682 L 362.304 210.738 L 362.137 211.674 Z " fill="rgb(123,145,201)"/><path d=" M 368.057 178.542 L 324.22 175.451 L 323.11 175.373 L 322.771 174.536 L 323.936 174.622 L 368.175 177.885 L 368.057 178.542 Z " fill="rgb(123,145,201)"/><path d=" M 367.313 182.709 L 325.978 180.582 L 325.204 180.542 L 324.632 179.128 L 325.498 179.18 L 367.494 181.695 L 367.313 182.709 Z " fill="rgb(123,145,201)"/><path d=" M 315.322 173.457 L 334.498 170.056 L 337.034 171.035 L 335.226 172.704 L 315.322 174.536 L 315.322 173.457 Z " fill="rgb(207,191,189)"/><path d=" M 267.728 186.512 L 267.663 186.803 L 262.335 187.741 L 255.283 187.741 L 253.51 182.114 C 253.51 182.114 259.907 181.682 263.292 182.058 L 267.728 186.512 Z " fill="rgb(112,159,211)"/><path d=" M 313.336 178.896 C 313.336 178.896 314.124 181.109 313.336 185.716 C 312.548 190.324 311.015 191.087 311.015 191.087 L 303.922 190.63 L 299.878 184.275 L 300.347 176.022 L 311.073 174.125 L 313.336 178.896 Z " fill="rgb(189,134,115)"/><path d=" M 313.336 178.602 C 312.661 179.736 311.889 178.409 311.889 178.409 C 311.889 178.409 311.12 179.713 310.492 180.069 L 310.37 180.126 C 309.723 180.36 307.913 177.837 307.913 177.837 L 307.894 178.062 C 307.809 178.681 307.519 180.435 306.75 180.745 C 305.793 181.12 304.162 178.531 304.162 178.531 C 304.162 178.531 304.358 180.604 303.608 181.054 L 303.449 181.12 C 302.511 181.354 300.288 178.803 300.288 178.803 C 300.288 178.803 300.41 181.804 301.17 184.28 C 301.892 186.634 303.805 189.857 303.861 190.045 C 303.58 189.857 297.887 185.621 296.012 183.173 C 294.07 180.651 287.393 179.947 286.98 179.769 C 286.567 179.6 286.811 176.731 289.888 176.43 C 292.889 176.149 298.994 181.448 299.285 181.701 C 299.191 181.345 297.043 173.636 298.591 172.098 C 299.06 171.628 299.557 171.375 300.016 171.244 C 300.992 170.972 301.817 171.291 301.967 171.356 L 301.986 171.366 C 301.986 171.366 301.873 169.124 303.861 168.852 C 305.324 168.656 306.187 169.059 306.553 169.293 L 306.75 169.443 C 306.75 169.443 308.138 167.858 309.376 167.896 C 310.37 167.924 311.139 168.543 311.401 168.768 L 311.486 168.852 C 311.486 168.852 312.611 168.421 313.333 168.852 C 314.065 169.284 314.011 177.467 313.336 178.602 Z " fill="rgb(198,138,103)"/><path d=" M 262.335 188.726 C 262.335 188.726 261.548 190.985 258.5 191.379 C 256.971 191.576 255.893 191.127 255.199 190.639 L 255.199 190.629 C 254.514 190.151 254.205 189.616 254.205 189.616 L 254.673 178.372 L 261.473 177.125 L 262.335 188.726 Z " fill="rgb(198,138,103)"/><path d=" M 261.754 181.007 C 261.754 181.007 259.184 181.007 256.962 183.586 C 254.795 186.09 255.17 190.376 255.199 190.629 C 254.514 190.151 254.205 189.616 254.205 189.616 L 254.673 178.372 L 261.473 177.125 L 261.754 181.007 Z " fill="rgb(183,124,109)"/><path d=" M 283.931 161.286 L 283.921 161.305 L 283.921 161.315 L 283.678 161.934 C 282.984 163.584 281.896 165.291 280.339 167.008 C 272.986 175.139 244.701 186.862 233.597 169.671 C 222.502 152.471 227.66 126.202 235.473 120.275 C 245.17 112.932 270.332 117.152 270.876 123.717 C 271.064 126.015 271.495 129.166 272.189 132.448 L 272.199 132.448 C 273.493 138.534 275.734 145.062 279.242 147.397 C 283.35 150.136 286.097 155.36 283.931 161.286 Z " fill="rgb(198,138,103)"/><path d=" M 256.108 151.849 C 258.059 149.248 253.315 137.951 250.081 138.68 C 244.532 139.93 242.353 148.645 245.089 152.709 C 247.824 156.773 255.17 153.099 256.108 151.849 Z " fill="rgb(254,254,254)"/><path d=" M 267.323 148.085 C 269.937 150.364 273.371 148.112 274.543 145.988 C 275.793 143.721 271.426 135.423 266.425 135.437 C 262.809 135.447 265.278 146.302 267.323 148.085 Z " fill="rgb(254,254,254)"/><linearGradient id="_lgradient_20" x1="0" y1="0" x2="1" y2="0" gradientTransform="matrix(7.322,-1.789,1.789,7.322,247.479,146.545)" gradientUnits="userSpaceOnUse"><stop offset="0%" stop-opacity="1" style="stop-color:rgb(164,69,54)"/><stop offset="100%" stop-opacity="1" style="stop-color:rgb(111,45,45)"/></linearGradient><path d=" M 254.801 144.756 C 255.492 147.582 254.413 150.274 252.391 150.768 C 250.369 151.262 248.169 149.371 247.479 146.545 C 246.789 143.719 247.868 141.027 249.89 140.533 C 251.912 140.039 254.111 141.93 254.801 144.756 Z " fill="url(#_lgradient_20)"/><path d=" M 253.577 145.245 C 254.029 147.093 253.323 148.852 252.001 149.175 C 250.68 149.498 249.242 148.263 248.79 146.415 C 248.339 144.567 249.045 142.807 250.367 142.485 C 251.688 142.162 253.126 143.398 253.577 145.245 Z " fill="rgb(90,41,43)"/><linearGradient id="_lgradient_21" x1="0" y1="0" x2="1" y2="0" gradientTransform="matrix(4.441,-2.062,2.548,5.488,267.84,142.115)" gradientUnits="userSpaceOnUse"><stop offset="0%" stop-opacity="1" style="stop-color:rgb(164,69,54)"/><stop offset="100%" stop-opacity="1" style="stop-color:rgb(111,45,45)"/></linearGradient><path d=" M 272.281 140.053 C 273.265 142.172 273.068 144.35 271.842 144.92 C 270.615 145.489 268.824 144.233 267.84 142.115 C 266.857 139.997 267.054 137.818 268.28 137.248 C 269.506 136.679 271.298 137.935 272.281 140.053 Z " fill="url(#_lgradient_21)"/><path d=" M 271.575 140.545 C 272.218 141.93 272.089 143.354 271.288 143.726 C 270.486 144.098 269.315 143.277 268.672 141.892 C 268.029 140.508 268.158 139.083 268.959 138.711 C 269.761 138.339 270.932 139.16 271.575 140.545 Z " fill="rgb(90,41,43)"/><path d=" M 251.808 146.398 C 251.971 146.751 250.652 147.71 248.861 148.542 C 247.07 149.374 245.485 149.762 245.322 149.41 C 245.158 149.057 246.477 148.098 248.268 147.266 C 250.059 146.434 251.644 146.046 251.808 146.398 Z " fill="rgb(254,254,254)"/><path d=" M 270.914 141.437 C 271.095 141.722 270.123 142.66 268.744 143.533 C 267.365 144.406 266.101 144.882 265.921 144.597 C 265.74 144.312 266.712 143.373 268.091 142.501 C 269.47 141.628 270.734 141.152 270.914 141.437 Z " fill="rgb(254,254,254)"/><path d=" M 245.089 152.709 C 245.089 152.709 242.007 147.684 243.944 141.787 C 246.3 134.616 252.448 139.508 252.448 139.508 C 252.448 139.508 249.082 138.318 246.242 141.787 C 242.373 146.511 245.089 152.709 245.089 152.709 Z " fill="rgb(189,134,115)"/><path d=" M 264.58 137.879 C 264.58 137.879 265.697 136.493 268.613 136.59 C 270.684 136.658 272.194 138.973 272.194 138.973 C 272.194 138.973 270.522 136.049 268.417 135.222 C 264.764 133.786 264.58 137.879 264.58 137.879 Z " fill="rgb(189,134,115)"/><path d=" M 271.036 158.145 C 262.295 160.93 260.138 157.207 260.138 157.207 C 260.138 157.207 258.619 155.285 259.706 151.411 C 259.941 150.567 260.213 149.78 260.522 149.048 L 260.522 149.038 C 262.192 144.931 264.583 142.624 264.583 142.624 C 264.583 142.624 265.585 148.798 270.372 150.045 C 273.064 150.746 275.078 151.89 275.725 153.202 L 275.734 153.222 C 276.531 154.853 275.293 156.785 271.036 158.145 Z " fill="rgb(198,138,103)"/><path d=" M 253.061 162.322 C 253.061 162.322 261.424 163.415 269.395 161.384 C 277.367 159.351 280.024 155.991 280.024 155.991 L 280.381 156.88 C 280.381 156.88 275.335 160.915 269.591 162.243 C 263.847 163.572 253.061 162.947 253.061 162.947 L 253.061 162.322 Z " fill="rgb(90,41,43)"/><path d=" M 255.836 159.49 C 255.836 159.49 254.195 160.055 252.632 162.556 C 251.069 165.057 251.186 166.698 251.186 166.698 C 251.186 166.698 252.905 163.885 253.804 162.595 C 254.703 161.305 255.836 159.49 255.836 159.49 Z " fill="rgb(90,41,43)"/><path d=" M 277.445 155.17 C 277.445 155.17 278.368 155.363 279.538 156.498 C 280.708 157.632 281.314 159.49 281.314 159.49 C 281.314 159.49 281.255 156.949 280.142 155.991 C 279.028 155.034 277.445 155.17 277.445 155.17 Z " fill="rgb(90,41,43)"/><path d=" M 267.495 156.23 C 266.848 156.23 266.418 156.137 266.389 155.96 C 266.34 155.654 267.511 155.21 269.005 154.969 C 269.635 154.867 270.222 154.818 270.694 154.818 C 271.341 154.818 271.771 154.91 271.8 155.088 C 271.849 155.394 270.678 155.838 269.184 156.079 C 268.554 156.18 267.967 156.23 267.495 156.23 Z " fill="rgb(238,182,163)"/><path d=" M 271.496 163.4 C 271.323 163.4 271.209 163.364 271.173 163.285 C 271.042 163.004 271.975 162.294 273.255 161.699 C 274.181 161.269 275.035 161.018 275.487 161.018 C 275.66 161.018 275.774 161.055 275.81 161.133 C 275.941 161.414 275.009 162.124 273.728 162.719 C 272.803 163.149 271.948 163.4 271.496 163.4 Z " fill="rgb(251,207,179)"/><path d=" M 271.913 169.25 C 271.74 169.25 271.626 169.213 271.59 169.135 C 271.459 168.853 272.391 168.143 273.671 167.548 C 274.597 167.119 275.452 166.867 275.904 166.867 C 276.077 166.867 276.191 166.904 276.227 166.982 C 276.357 167.263 275.426 167.973 274.145 168.568 C 273.219 168.998 272.365 169.25 271.913 169.25 Z " fill="rgb(251,207,179)"/><path d=" M 264.298 156.757 C 263.88 156.757 263.56 156.628 263.527 156.422 C 263.484 156.159 263.922 155.87 264.504 155.776 C 264.628 155.756 264.75 155.746 264.863 155.746 C 265.281 155.746 265.601 155.875 265.634 156.082 C 265.677 156.345 265.239 156.634 264.657 156.727 C 264.533 156.747 264.412 156.757 264.298 156.757 Z " fill="rgb(238,182,163)"/><path d=" M 271.036 158.145 C 262.295 160.93 260.138 157.207 260.138 157.207 C 260.138 157.207 258.619 155.284 259.706 151.411 C 259.941 150.567 260.213 149.78 260.522 149.048 C 260.513 149.404 260.41 158.651 267.481 157.629 C 274.693 156.597 275.725 153.202 275.725 153.202 L 275.734 153.222 C 276.531 154.853 275.293 156.785 271.036 158.145 Z " fill="rgb(189,134,115)"/><path d=" M 259.914 156.842 C 259.914 156.842 262.009 159.371 268.222 158.375 C 274.435 157.378 275.836 154.867 275.836 154.867 C 275.836 154.867 275.168 158.17 268.281 159.179 C 261.052 160.237 259.914 156.842 259.914 156.842 Z " fill="rgb(90,41,43)"/><path d=" M 283.921 161.315 L 283.678 161.934 C 282.984 163.584 281.896 165.291 280.339 167.008 C 272.986 175.139 244.701 186.862 233.597 169.671 C 222.502 152.471 227.66 126.202 235.473 120.275 C 245.17 112.932 270.332 117.152 270.876 123.717 C 271.064 126.015 271.495 129.166 272.189 132.448 C 271.786 132.158 260.147 124.157 245.714 131.22 C 231.018 138.404 234.948 166.445 243.304 172.485 C 251.66 178.524 267.828 172.953 274.009 169.671 C 279.982 166.492 283.696 161.606 283.921 161.315 Z " fill="rgb(198,138,103)"/><path d=" M 264.783 165.487 C 264.783 165.487 269.394 167.636 272.208 167.225 C 275.021 166.815 275.961 162.009 275.961 162.009 C 275.961 162.009 274.475 163.878 271.739 164.643 C 269.004 165.409 264.783 165.487 264.783 165.487 Z " fill="rgb(189,134,115)"/><path d=" M 264.783 165.487 C 264.783 165.487 268.11 165.233 271.153 164.471 C 274.396 163.658 275.961 162.009 275.961 162.009 C 275.961 162.009 274.372 164.7 271.543 165.565 C 268.715 166.43 264.783 165.487 264.783 165.487 Z " fill="rgb(90,41,43)"/><path d=" M 251.054 130.432 C 251.054 130.432 249.562 131.053 245.163 133.991 C 240.764 136.929 238.12 141.622 238.12 141.622 C 238.12 141.622 235.335 138.797 235.569 137.39 C 235.804 135.984 240.136 131.078 243.305 128.989 C 246.744 126.722 248.172 126.41 248.172 126.41 L 249.891 128.638 L 251.054 125.746 L 251.054 130.432 Z " fill="rgb(68,11,11)"/><linearGradient id="_lgradient_22" x1="0" y1="0" x2="1" y2="0" gradientTransform="matrix(62.232,0,0,62.232,215.586,133.254)" gradientUnits="userSpaceOnUse"><stop offset="0%" stop-opacity="1" style="stop-color:rgb(55,24,19)"/><stop offset="98.69565217391305%" stop-opacity="1" style="stop-color:rgb(68,11,11)"/></linearGradient><path d=" M 234.46 162.009 L 228.966 159.179 C 228.966 159.179 228.966 159.179 228.965 159.178 C 228.907 159.096 225.939 154.879 223.146 149.581 L 223.148 149.583 L 223.89 147.342 C 223.953 147.424 223.987 147.467 223.987 147.467 L 223.987 147.467 L 223.987 147.467 L 223.928 147.227 L 224.569 145.29 L 226.175 147.467 L 226.175 147.467 C 226.175 147.467 225.669 145.603 225.283 143.135 L 229.561 130.211 L 229.582 130.185 C 230.3 129.586 243.075 119.061 254.966 114.83 L 254.966 114.83 C 257.977 113.753 260.934 113.085 263.629 113.085 C 263.762 113.085 263.894 113.086 264.026 113.09 C 277.656 113.42 274.436 126.63 274.436 126.63 C 274.436 126.63 274.438 126.627 274.443 126.623 C 273.248 128.813 272.194 130.24 272.194 130.24 C 272.194 130.24 272.026 129.79 271.563 129.121 L 271.563 129.121 C 270.218 127.18 266.385 123.394 256.944 123.394 C 256.349 123.394 255.733 123.409 255.092 123.44 C 240.79 124.144 234.811 128.012 234.811 128.012 C 234.811 128.012 229.888 140.673 231.06 148.528 C 232.232 156.382 234.46 162.009 234.46 162.009 Z " fill="url(#_lgradient_22)"/><path d=" M 232.471 173.497 C 228.992 173.985 225.222 170.59 222.98 166.867 C 221.986 165.207 221.292 163.481 221.058 162.009 C 220.739 159.955 221.311 158.389 223.206 158.145 C 229.536 157.32 234.46 162.009 234.46 162.009 L 237.039 167.28 C 237.039 167.28 238.258 172.681 232.471 173.497 Z " fill="rgb(198,138,103)"/><path d=" M 234.929 166.698 C 234.929 166.698 233.166 166.698 229.058 166.285 C 226.469 166.023 224.256 166.492 222.98 166.867 C 221.986 165.207 221.292 163.481 221.058 162.009 C 221.058 162.009 222.624 160.78 227.21 162.009 C 231.796 163.238 234.929 166.698 234.929 166.698 Z " fill="rgb(198,138,103)"/><linearGradient id="_lgradient_23" x1="0" y1="0" x2="1" y2="0" gradientTransform="matrix(62.232,0,0,62.232,215.586,133.254)" gradientUnits="userSpaceOnUse"><stop offset="0%" stop-opacity="1" style="stop-color:rgb(25,21,19)"/><stop offset="100%" stop-opacity="1" style="stop-color:rgb(136,79,61)"/></linearGradient><path d=" M 226.175 147.467 L 224.569 145.29 L 225.283 143.135 C 225.669 145.603 226.175 147.467 226.175 147.467 Z  M 223.987 147.467 C 223.987 147.467 223.953 147.424 223.89 147.342 L 223.928 147.227 L 223.987 147.467 Z " fill-rule="evenodd" fill="url(#_lgradient_23)"/><path d=" M 311.974 179.46 L 310.492 180.069 L 310.37 180.126 C 310.37 180.126 311.383 177.078 310.839 172.857 C 310.295 168.637 309.376 167.896 309.376 167.896 C 310.37 167.924 311.139 168.543 311.401 168.768 L 311.486 168.852 C 311.486 168.852 311.542 169.781 311.748 172.332 C 311.955 174.883 311.889 178.409 311.889 178.409 L 311.974 179.46 Z " fill="rgb(189,134,115)"/><path d=" M 307.913 177.837 L 307.894 178.062 L 307.706 180.416 L 306.75 180.745 C 306.75 180.745 306.412 177.049 305.737 173.326 C 305.062 169.603 303.861 168.852 303.861 168.852 C 305.324 168.656 306.187 169.059 306.553 169.293 L 306.75 169.443 C 306.75 169.443 307.143 170.635 307.5 173.035 C 307.847 175.436 307.913 177.837 307.913 177.837 Z " fill="rgb(189,134,115)"/><path d=" M 304.715 181.054 L 303.608 181.054 C 303.608 181.054 303.186 179.009 302.107 175.286 C 301.019 171.572 300.016 171.244 300.016 171.244 C 300.992 170.972 301.817 171.291 301.967 171.356 L 301.986 171.366 L 304.162 178.531 L 304.715 181.054 Z " fill="rgb(189,134,115)"/><path d=" M 259.968 195.414 L 264.027 195.414 L 260.784 185.565 L 259.792 185.716 L 259.968 195.414 Z " fill="rgb(118,200,227)"/><path d=" M 251.184 188.913 C 251.184 188.913 252.513 181.881 253.51 182.118 C 254.507 182.356 259.293 184.584 259.914 185.17 C 260.535 185.756 259.914 196.42 259.914 196.42 C 259.914 196.42 253.673 192.66 251.184 188.913 Z " fill="rgb(172,224,249)"/><path d=" M 267.728 186.512 C 267.728 186.578 267.709 187.666 266.575 190.63 C 265.402 193.687 264.246 195.913 264.246 195.913 C 264.246 195.913 261.96 190.826 261.219 187.741 C 260.929 186.531 260.732 185.546 260.769 185.171 C 260.891 183.83 263.292 182.058 263.292 182.058 L 267.728 186.512 Z " fill="rgb(151,216,232)"/><linearGradient id="_lgradient_24" x1="0" y1="0" x2="1" y2="0" gradientTransform="matrix(57.41,0,0,57.41,210.226,122.812)" gradientUnits="userSpaceOnUse"><stop offset="0%" stop-opacity="1" style="stop-color:rgb(44,122,190)"/><stop offset="28.57142857142857%" stop-opacity="1" style="stop-color:rgb(39,112,182)"/><stop offset="69.84126984126983%" stop-opacity="1" style="stop-color:rgb(34,93,157)"/><stop offset="100%" stop-opacity="1" style="stop-color:rgb(49,81,131)"/></linearGradient><path d=" M 210.226 129.66 L 210.226 129.66 C 210.226 125.83 212.335 117.13 214.866 111.72 C 215.625 110.07 216.435 108.73 217.226 107.92 C 225.395 99.596 238.942 96.575 245.896 96.575 C 246.178 96.575 246.447 96.58 246.706 96.59 C 248.273 96.648 250.26 97.279 252.384 98.208 C 248.705 98.912 245.466 100.214 243.305 102.42 C 240.207 105.58 236.842 112.326 234.217 118.38 C 234.2 118.402 233.328 119.574 232.095 121.404 C 231.711 121.435 231.264 121.458 230.764 121.458 C 228.316 121.458 224.622 120.922 221.056 118.34 C 218.306 116.34 216.266 113.85 214.866 111.72 C 212.335 117.13 210.226 125.83 210.226 129.66 Z " fill="url(#_lgradient_24)"/><linearGradient id="_lgradient_25" x1="0" y1="0" x2="1" y2="0" gradientTransform="matrix(0,235.531,-235.531,0,264.089,185.419)" gradientUnits="userSpaceOnUse"><stop offset="0%" stop-opacity="1" style="stop-color:rgb(44,122,190)"/><stop offset="28.57142857142857%" stop-opacity="1" style="stop-color:rgb(39,112,182)"/><stop offset="69.84126984126983%" stop-opacity="1" style="stop-color:rgb(34,93,157)"/><stop offset="100%" stop-opacity="1" style="stop-color:rgb(49,81,131)"/></linearGradient><path d=" M 291.988 420.95 L 284.954 420.95 C 284.954 420.95 274.348 372.107 270.165 348.239 C 268.092 355.724 265.87 363.414 263.544 371.011 C 257.992 389.157 247.91 419.543 247.91 419.543 L 239.672 419.543 C 239.672 419.543 239.348 414.329 239.272 406.066 C 239.271 405.901 239.269 405.735 239.267 405.567 L 247.893 406.885 C 247.893 406.885 249.121 402.702 249.44 375.195 C 249.749 347.998 248.756 312.595 248.737 311.788 L 248.737 311.779 C 250.434 310.588 252.704 308.993 255.733 306.846 C 264.99 300.281 267.803 295.714 267.803 295.714 L 267.803 290.087 C 267.803 290.087 267.61 290.512 266.745 291.492 C 267.411 290.622 267.803 290.087 267.803 290.087 C 267.803 290.087 261.883 293.721 255.083 296.944 C 253.081 297.894 251.402 298.726 250.029 299.428 C 250.478 295.921 250.914 290.818 250.997 283.916 C 251.175 268.798 249.281 248.897 248.343 246.402 C 247.405 243.898 243.26 241.779 243.26 241.779 C 243.71 243.673 244.151 245.577 244.592 247.49 C 245.329 250.706 245.825 254.572 246.126 258.926 C 245.822 254.778 245.337 251.085 244.627 247.994 C 244.187 246.081 243.746 244.177 243.296 242.283 C 242.743 239.959 242.19 237.663 241.637 235.405 C 241.829 235.601 246.772 240.495 263.736 244.768 C 263.868 244.795 264.001 244.829 264.133 244.864 C 266.81 248.708 272.511 258.384 273.743 262.587 C 278.82 279.906 281.541 290.482 278.56 310.798 C 276.559 324.423 270.129 347.735 270.129 347.735 L 284.918 420.446 L 291.953 420.446 C 291.953 420.446 295 404.269 295.704 357.846 C 296.268 320.5 295.625 278.914 293.683 251.317 C 295.653 278.91 296.308 320.777 295.74 358.35 C 295.036 404.773 291.988 420.95 291.988 420.95 Z  M 250.466 232.783 C 249.884 232.426 249.396 232.032 249.002 231.582 C 243.375 225.139 233.772 201.449 233.772 201.449 L 233.733 201.379 L 233.777 201.449 C 233.777 201.449 243.38 225.139 249.007 231.582 C 249.4 232.031 249.886 232.424 250.466 232.78 C 250.466 232.782 250.466 232.783 250.466 232.783 Z  M 240.37 230.277 C 237.392 218.326 234.659 207.997 233.246 202.725 C 232.649 200.5 232.288 199.176 232.242 199.011 L 232.566 199.526 C 233.232 202.056 236.535 214.778 240.37 230.277 Z  M 248.867 213.81 C 248.517 211.979 248.098 210.086 247.596 208.173 C 247.63 208.184 247.664 208.194 247.699 208.205 C 248.14 209.935 248.514 211.646 248.83 213.306 C 248.862 213.473 248.892 213.639 248.922 213.806 L 248.867 213.81 Z  M 274.014 194.646 C 273.978 194.644 273.943 194.642 273.907 194.64 C 271.242 190.257 269.011 186.867 268.985 186.582 C 269.012 186.87 271.303 190.27 274.014 194.646 Z  M 268.985 186.58 C 268.985 186.579 268.985 186.578 268.985 186.578 C 268.985 186.578 268.985 186.579 268.985 186.58 Z  M 268.985 186.578 L 268.985 186.578 C 268.985 186.577 268.985 186.576 268.985 186.575 C 268.985 186.576 268.985 186.577 268.985 186.578 Z  M 268.985 186.574 C 268.985 186.574 268.985 186.573 268.985 186.573 C 268.985 186.573 268.985 186.574 268.985 186.574 Z  M 268.986 186.571 C 268.986 186.571 268.986 186.571 268.986 186.571 C 268.986 186.571 268.986 186.571 268.986 186.571 Z " fill-rule="evenodd" fill="url(#_lgradient_25)"/><path d=" M 304.986 449.837 C 226.929 449.837 163.652 446.404 163.652 442.17 C 163.652 439.381 191.11 436.939 232.164 435.598 C 231.702 435.953 231.246 436.311 230.806 436.67 C 229.556 437.69 227.466 439.6 225.676 441.41 C 223.576 443.54 221.875 445.53 222.436 445.77 C 223.462 446.22 226.611 446.944 229.884 446.944 C 232.575 446.944 235.35 446.454 237.096 444.92 C 240.805 441.661 244.294 436.382 244.982 435.226 C 257.663 434.903 271.365 434.679 285.764 434.573 C 285.736 435.092 285.746 435.45 285.816 435.53 C 286.032 435.771 299.665 436.253 310.236 436.253 C 316.77 436.253 322.134 436.069 322.436 435.53 C 322.584 435.264 322.307 434.932 321.702 434.556 C 391.881 435.005 446.32 438.242 446.32 442.17 C 446.32 446.404 383.042 449.837 304.986 449.837 Z " fill="rgb(220,222,221)"/><path d=" M 285.82 420.23 L 286.56 428.106 L 291.014 428.106 L 291.014 418.829 L 285.82 420.23 Z " fill="rgb(198,138,103)"/><path d=" M 322.436 435.53 C 321.646 436.94 286.166 435.92 285.816 435.53 C 285.476 435.14 286.556 428.11 286.556 428.11 L 289.766 428.11 C 289.766 428.11 291.066 427.93 293.476 427.97 C 295.806 428.01 299.176 428.28 303.426 429.12 C 308.326 430.09 314.026 431.57 317.906 432.92 C 320.876 433.96 322.776 434.92 322.436 435.53 Z " fill="rgb(90,41,43)"/><path d=" M 295.704 357.846 C 295 404.269 291.953 420.446 291.953 420.446 L 284.918 420.446 L 270.129 347.735 C 270.129 347.735 276.559 324.423 278.56 310.798 C 281.541 290.482 278.82 279.906 273.743 262.587 C 272.441 258.144 266.143 247.584 263.705 244.264 C 258.847 237.568 252.451 233.479 250.819 232.503 C 250.687 232.429 250.6 232.38 250.478 232.305 C 250.478 232.305 250.772 223.679 248.83 213.306 C 248.446 211.29 247.977 209.198 247.405 207.088 C 243.888 194.193 236.254 191.089 236.254 191.089 C 236.254 191.089 236.386 189.579 237.164 189.344 C 237.952 189.11 243.494 188.566 244.198 188.913 C 244.723 189.176 251.363 204.669 255.789 212.79 C 257.318 215.594 258.584 217.517 259.241 217.639 C 261.82 218.108 279.845 216.833 282.105 215.238 C 282.724 214.797 282.912 213.944 282.789 212.79 C 282.002 205.653 268.985 187.178 268.985 186.578 C 269.05 185.987 274.912 183.98 275.84 185.752 C 276.478 186.99 282.527 197.963 287.216 212.79 C 287.995 215.257 288.745 217.836 289.42 220.49 L 289.43 220.537 C 290.461 224.588 291.333 228.827 291.924 233.151 C 291.971 233.404 291.999 233.667 292.037 233.929 C 292.543 237.812 293.003 242.407 293.406 247.584 C 295.563 275.063 296.294 318.775 295.704 357.846 Z " fill="rgb(51,79,128)"/><path d=" M 240.957 419.039 L 240.957 429.59 L 244.644 430.849 L 246.809 419.039 L 240.957 419.039 Z " fill="rgb(198,138,103)"/><path d=" M 245.056 435.1 C 244.596 435.92 240.966 441.52 237.096 444.92 C 233.226 448.32 224.306 446.59 222.436 445.77 C 221.875 445.53 223.576 443.54 225.676 441.41 C 227.466 439.6 229.556 437.69 230.806 436.67 C 233.276 434.66 236.206 432.65 238.286 431.29 C 239.876 430.25 240.956 429.59 240.956 429.59 L 244.826 429.59 C 244.826 429.59 245.526 434.28 245.056 435.1 Z " fill="rgb(90,41,43)"/><path d=" M 295.756 408.91 L 295.746 408.91 C 295.236 412.54 293.556 421.32 293.046 421.4 C 292.426 421.5 285.216 422.37 284.916 421.9 C 284.736 421.62 283.866 418.72 283.086 415.92 C 282.366 413.32 281.716 410.8 281.796 410.6 C 281.946 410.17 295.706 406.87 295.896 407.37 C 295.936 407.47 295.876 408.04 295.756 408.91 Z " fill="rgb(62,130,176)"/><path d=" M 295.398 290.087 L 299.221 291.963 L 295.78 310.798 L 295.398 290.087 Z " fill="rgb(62,130,176)"/><path d=" M 244.757 308.16 L 245.21 302.038 C 245.21 302.038 248.284 300.169 255.083 296.944 C 261.883 293.721 267.803 290.087 267.803 290.087 C 267.803 290.087 260.242 300.403 255.083 304.154 C 249.926 307.906 244.757 308.16 244.757 308.16 Z " fill="rgb(51,79,128)"/><path d=" M 267.803 290.087 L 267.803 295.714 C 267.803 295.714 264.99 300.281 255.733 306.846 C 252.704 308.993 250.434 310.588 248.737 311.779 L 248.737 311.788 C 245.239 314.236 244.216 314.921 244.216 314.921 L 243.654 308.806 C 243.654 308.806 244.048 308.581 244.76 308.15 C 245.06 307.972 245.417 307.756 245.83 307.503 L 246.336 307.184 C 246.899 306.837 247.537 306.424 248.249 305.965 L 248.943 305.515 L 248.943 305.505 C 251.71 303.695 255.367 301.182 259.363 298.059 C 266.818 292.253 267.803 290.087 267.803 290.087 Z " fill="rgb(62,130,176)"/><path d=" M 239.267 405.567 L 239.236 405.563 C 239.124 394.891 239.208 379.135 240.137 363.004 C 240.821 351.103 242.678 333.359 244.216 314.921 L 243.654 308.806 L 243.654 308.806 L 244.216 314.921 C 244.216 314.921 244.242 314.904 244.299 314.865 C 244.283 315.052 244.268 315.238 244.252 315.425 C 242.714 333.862 240.857 351.607 240.173 363.508 C 239.259 379.389 239.163 394.907 239.267 405.567 Z " fill="rgb(193,230,237)"/><linearGradient id="_lgradient_26" x1="0" y1="0" x2="1" y2="0" gradientTransform="matrix(0,235.531,-235.531,0,264.089,185.419)" gradientUnits="userSpaceOnUse"><stop offset="0%" stop-opacity="1" style="stop-color:rgb(44,152,207)"/><stop offset="100%" stop-opacity="1" style="stop-color:rgb(46,116,164)"/></linearGradient><path d=" M 247.893 406.885 L 239.267 405.567 C 239.163 394.907 239.259 379.389 240.173 363.508 C 240.857 351.607 242.714 333.862 244.252 315.425 C 244.268 315.238 244.283 315.052 244.299 314.865 C 244.602 314.66 245.792 313.849 248.737 311.788 L 248.737 311.779 L 248.737 311.788 C 248.756 312.595 249.749 347.998 249.44 375.195 C 249.121 402.702 247.893 406.885 247.893 406.885 Z " fill="url(#_lgradient_26)"/><path d=" M 245.211 302.038 C 246.323 286.215 246.944 270.766 246.126 258.926 C 246.988 270.693 246.389 286.138 245.286 301.993 C 245.241 302.02 245.216 302.035 245.211 302.038 Z " fill="rgb(193,230,237)"/><linearGradient id="_lgradient_27" x1="0" y1="0" x2="1" y2="0" gradientTransform="matrix(0,235.531,-235.531,0,264.089,185.419)" gradientUnits="userSpaceOnUse"><stop offset="0%" stop-opacity="1" style="stop-color:rgb(44,152,207)"/><stop offset="100%" stop-opacity="1" style="stop-color:rgb(46,116,164)"/></linearGradient><path d=" M 245.286 301.993 C 246.389 286.138 246.988 270.693 246.126 258.926 C 245.825 254.572 245.329 250.706 244.592 247.49 C 244.151 245.577 243.71 243.673 243.26 241.779 C 243.26 241.779 247.405 243.898 248.343 246.402 C 249.281 248.897 251.175 268.798 250.997 283.916 C 250.914 290.818 250.478 295.921 250.029 299.428 C 247.16 300.893 245.629 301.788 245.286 301.993 Z " fill="url(#_lgradient_27)"/><path d=" M 244.76 308.15 C 244.917 306.111 245.068 304.071 245.211 302.038 C 245.216 302.035 245.241 302.02 245.286 301.993 C 245.629 301.788 247.16 300.893 250.029 299.428 C 249.51 303.478 248.973 305.399 248.943 305.505 L 248.943 305.505 L 248.943 305.515 L 248.249 305.965 L 248.249 305.965 L 246.336 307.184 L 246.336 307.184 L 245.83 307.503 C 245.417 307.756 245.06 307.972 244.76 308.15 Z " fill="rgb(44,114,164)"/><path d=" M 244.216 314.921 L 243.654 308.806 C 243.654 308.806 244.048 308.581 244.76 308.15 L 244.76 308.15 C 245.06 307.972 245.417 307.756 245.83 307.503 L 246.336 307.184 L 246.336 307.184 L 245.83 307.503 L 248.737 311.779 L 248.737 311.788 C 245.792 313.849 244.602 314.66 244.299 314.865 C 244.242 314.904 244.216 314.921 244.216 314.921 Z  M 248.249 305.965 L 248.249 305.965 L 248.943 305.515 L 248.943 305.505 L 248.943 305.505 L 248.943 305.505 L 248.943 305.515 L 248.249 305.965 Z " fill="rgb(58,157,193)"/><path d=" M 225.676 441.41 C 227.466 439.6 229.556 437.69 230.806 436.67 C 233.276 434.66 236.206 432.65 238.286 431.29 C 240.236 431.74 240.356 432.69 240.356 432.69 C 240.356 432.69 239.266 437.19 232.516 439.939 C 230.085 440.93 227.716 441.32 225.676 441.41 Z " fill="rgb(129,79,59)"/><path d=" M 311.972 433.738 C 310.257 433.738 308.096 433.632 305.396 433.34 C 295.396 432.25 291.976 428.11 291.976 428.11 L 293.476 427.97 C 295.806 428.01 299.176 428.28 303.426 429.12 C 308.326 430.09 314.026 431.57 317.906 432.92 L 317.996 432.96 C 317.996 432.96 316.61 433.738 311.972 433.738 Z " fill="rgb(129,79,59)"/><path d=" M 291.014 422.983 L 286.327 425.627 L 285.99 422.038 L 291.014 421.647 L 291.014 422.983 Z " fill="rgb(227,128,94)"/><path d=" M 240.957 424.944 L 246.01 423.399 L 246.541 420.501 L 240.957 420.713 L 240.957 424.944 Z " fill="rgb(198,138,103)"/><path d=" M 246.336 307.184 C 246.336 307.184 239.726 295.67 239.809 294.087 C 239.893 292.503 243.059 292.17 244.059 292.587 C 245.059 293.003 248.943 305.515 248.943 305.515 C 248.943 305.515 246.842 306.864 246.336 307.184 Z " fill="rgb(185,53,56)"/><path d=" M 254.592 301.632 C 254.592 301.632 250.41 298.67 248.943 294.67 C 247.476 290.67 248.244 285.92 248.943 285.92 C 249.643 285.92 249.473 292.587 251.349 295.003 C 253.226 297.42 256.934 297.92 256.934 297.92 C 256.934 297.92 256.876 295.628 256.28 291.962 C 255.684 288.295 251.851 285.753 251.976 285.17 C 252.101 284.587 257.684 287.42 258.934 291.087 C 260.184 294.753 260.57 297.171 260.57 297.171 L 254.592 301.632 Z " fill="rgb(166,194,229)"/><path d=" M 268.558 299.123 C 268.558 299.123 268.179 312.42 266.078 321.67 C 263.976 330.92 261.038 335.67 261.038 335.67 C 261.038 335.67 271.726 324.92 273.476 319.17 C 275.226 313.42 268.558 299.123 268.558 299.123 Z " fill="rgb(49,82,146)"/><path d=" M 241.637 235.405 C 241.633 235.401 241.631 235.399 241.631 235.399 C 241.206 233.666 240.785 231.955 240.37 230.277 C 240.788 231.956 241.211 233.666 241.636 235.399 C 241.636 235.401 241.637 235.403 241.637 235.405 Z " fill="rgb(178,169,210)"/><path d=" M 250.47 232.783 C 250.469 232.782 250.467 232.781 250.466 232.78 C 250.467 232.758 250.473 232.595 250.478 232.305 C 250.48 232.306 250.481 232.307 250.483 232.308 C 250.477 232.619 250.47 232.783 250.47 232.783 Z  M 250.479 232.284 C 250.516 230.309 250.528 222.713 248.862 213.81 L 248.867 213.81 C 248.867 213.81 248.867 213.81 248.867 213.81 C 250.356 221.767 250.504 228.682 250.492 231.47 C 250.489 231.928 250.481 232.208 250.479 232.284 Z  M 233.733 201.379 L 232.566 199.526 C 232.502 199.283 232.463 199.135 232.449 199.086 L 232.451 199.089 C 232.539 199.261 232.634 199.431 232.737 199.6 L 233.733 201.379 Z " fill="rgb(182,125,65)"/><linearGradient id="_lgradient_28" x1="0" y1="0" x2="1" y2="0" gradientTransform="matrix(0,235.531,-235.531,0,264.089,185.419)" gradientUnits="userSpaceOnUse"><stop offset="0%" stop-opacity="1" style="stop-color:rgb(45,98,172)"/><stop offset="47.61904761904761%" stop-opacity="1" style="stop-color:rgb(43,85,162)"/><stop offset="69.84126984126983%" stop-opacity="1" style="stop-color:rgb(52,79,142)"/><stop offset="100%" stop-opacity="1" style="stop-color:rgb(56,73,126)"/></linearGradient><path d=" M 264.133 244.864 C 264.001 244.829 263.868 244.795 263.736 244.768 C 246.772 240.495 241.829 235.601 241.637 235.405 C 241.637 235.403 241.636 235.401 241.636 235.399 C 241.211 233.666 240.788 231.956 240.37 230.277 C 236.535 214.778 233.232 202.056 232.566 199.526 L 233.733 201.379 L 233.772 201.449 C 233.772 201.449 243.375 225.139 249.002 231.582 C 249.396 232.032 249.884 232.426 250.466 232.783 C 250.466 232.783 250.466 232.782 250.466 232.78 C 250.467 232.781 250.469 232.782 250.47 232.783 C 250.47 232.783 250.477 232.619 250.483 232.308 C 250.602 232.382 250.689 232.43 250.819 232.503 C 252.451 233.479 258.847 237.568 263.705 244.264 C 263.836 244.444 263.98 244.645 264.133 244.864 Z  M 250.492 231.47 C 250.504 228.682 250.356 221.767 248.867 213.81 C 248.867 213.81 248.867 213.81 248.867 213.81 L 248.922 213.806 C 250.418 222.054 250.51 229.115 250.492 231.47 Z " fill-rule="evenodd" fill="url(#_lgradient_28)"/><path d=" M 289.98 248.162 C 289.204 248.162 288.345 248.152 287.407 248.126 C 281.912 247.966 273.724 247.244 264.158 244.871 C 264.15 244.869 264.141 244.867 264.133 244.864 C 263.98 244.645 263.836 244.444 263.705 244.264 C 258.847 237.568 252.451 233.479 250.819 232.503 C 250.689 232.43 250.602 232.382 250.483 232.308 C 250.481 232.307 250.48 232.306 250.478 232.305 C 250.478 232.298 250.478 232.291 250.479 232.284 C 250.481 232.208 250.489 231.928 250.492 231.47 C 250.51 229.115 250.418 222.054 248.922 213.806 L 255.821 213.295 C 257.35 216.098 258.616 218.021 259.272 218.143 C 259.64 218.21 260.323 218.241 261.229 218.241 C 266.674 218.241 280.199 217.109 282.137 215.742 C 282.699 215.342 282.905 214.6 282.847 213.603 C 283.532 213.615 284.229 213.621 284.937 213.621 C 285.727 213.621 286.53 213.614 287.344 213.6 C 288.088 215.974 288.804 218.449 289.452 220.994 L 289.461 221.041 L 291.955 233.655 C 292.002 233.908 292.031 234.17 292.068 234.433 C 292.575 238.316 293.034 242.911 293.437 248.088 C 292.62 248.125 291.452 248.162 289.98 248.162 Z " fill="rgb(56,72,125)"/><path d=" M 332.054 209.217 C 332.054 209.217 331.942 209.236 331.735 209.264 L 331.566 209.292 L 331.36 209.33 L 330.769 209.414 C 328.565 209.752 323.764 210.455 317.715 211.196 C 305.56 212.678 288.36 214.3 277.116 213.325 C 258.124 211.684 229.961 206.525 231.809 195.075 C 232.249 192.364 234.557 191.145 238.074 190.808 C 242.944 190.331 250.136 191.529 257.898 192.727 C 266.022 193.981 274.771 195.235 282.133 194.568 C 298.977 193.049 322.732 182.808 325.339 181.664 C 325.489 181.598 325.574 181.561 325.574 181.561 L 325.555 181.645 C 325.414 182.217 324.72 185.762 326.427 193.518 C 327.843 199.951 330.329 205.616 331.463 208.007 C 331.829 208.786 332.054 209.217 332.054 209.217 Z " fill="rgb(247,200,64)"/><path d=" M 245.178 217.639 C 245.178 217.639 246.768 214.686 258.27 213.621 C 269.772 212.556 277.636 213.367 277.636 213.367 C 277.636 213.367 249.515 206.971 244.122 203.923 C 238.73 200.875 231.889 197.589 231.889 197.589 C 231.889 197.589 233.103 203.858 237.323 209.342 C 241.543 214.825 245.178 217.639 245.178 217.639 Z " fill="rgb(247,200,64)"/><path d=" M 330.769 209.414 L 330.769 209.414 L 331.36 209.33 L 331.566 209.292 L 331.735 209.264 L 331.735 209.273 L 331.566 209.292 L 331.36 209.33 L 330.769 209.414 Z " fill="rgb(251,218,168)"/><path d=" M 317.715 211.196 C 317.715 211.196 310.195 203.537 289.942 203.537 C 289.17 203.537 288.381 203.548 287.573 203.571 C 287.072 203.586 286.565 203.593 286.059 203.593 C 265.76 203.594 241.294 192.326 238.074 190.808 C 238.825 190.734 239.631 190.7 240.486 190.7 C 245.176 190.7 251.333 191.714 257.898 192.727 C 264.462 193.74 271.435 194.753 277.754 194.753 C 279.255 194.753 280.72 194.696 282.133 194.568 C 298.977 193.049 322.732 182.808 325.339 181.664 L 325.555 181.645 C 325.488 181.916 325.297 182.857 325.297 184.601 C 325.296 186.53 325.53 189.443 326.427 193.518 C 327.843 199.951 330.329 205.616 331.463 208.007 L 331.735 209.264 L 331.566 209.292 L 331.36 209.33 L 330.769 209.414 L 330.769 209.414 L 317.715 211.196 L 317.715 211.196 L 317.715 211.196 Z " fill="rgb(249,186,62)"/><path d=" M 334.73 194.035 C 336.591 201.651 335.573 208.443 332.455 209.205 C 329.337 209.966 325.301 204.41 323.44 196.793 C 321.579 189.177 322.598 182.385 325.715 181.623 C 328.833 180.861 332.869 186.418 334.73 194.035 Z " fill="rgb(200,93,86)"/><path d=" M 340.215 177.185 C 340.215 177.185 340.304 174.231 339.6 172.003 C 338.897 169.775 338.252 168.017 339.6 167.841 C 340.949 167.665 342.509 170 342.894 171.065 C 343.279 172.13 343.352 172.704 343.352 172.704 L 340.215 177.185 Z " fill="rgb(189,134,115)"/><path d=" M 359.918 176.868 C 357.068 178.744 353.513 180.226 351.516 182.926 C 349.528 185.618 344.951 189.566 340.815 190.373 C 336.669 191.17 336.435 190.936 335.422 191.01 C 334.709 191.067 329.111 193.88 325.829 195.568 L 325.163 195.906 C 324.9 196.037 324.665 196.159 324.459 196.272 L 323.437 196.797 L 323.428 196.778 C 323.315 196.516 322.311 194.143 322.527 190.373 L 322.63 190.345 C 323.287 190.185 327.122 189.238 330.292 188.131 L 330.311 188.122 C 331.83 187.587 333.19 187.015 333.978 186.481 C 336.547 184.718 342.532 172.179 344.566 170.537 C 346.592 168.896 352.922 162.763 354.33 162.35 C 354.882 162.191 355.332 162.153 355.67 162.172 C 356.13 162.191 356.402 162.312 356.467 162.341 L 356.486 162.35 C 356.486 162.35 358.184 161.328 358.765 161.478 C 358.934 161.525 358.869 162.087 358.7 162.885 L 358.568 163.335 C 358.259 164.244 357.649 164.985 357.068 165.848 C 356.318 166.964 354.948 168.371 354.92 168.465 C 355.014 168.371 356.243 167.517 357.63 166.683 C 359.244 165.707 361.063 164.751 361.522 165.023 C 361.747 165.154 361.635 165.623 361.307 166.27 L 361.297 166.28 L 361.279 166.326 C 360.293 168.259 357.527 171.775 356.017 173.463 C 353.963 175.752 352.904 177.159 352.904 177.159 L 352.941 177.14 C 353.269 176.981 355.97 175.639 358.164 174.72 C 360.509 173.745 362.536 173.238 363.126 173.276 C 363.707 173.313 362.77 174.992 359.918 176.868 Z " fill="rgb(198,138,103)"/><path d=" M 361.297 166.28 L 361.279 166.326 C 360.293 168.259 357.527 171.775 356.017 173.463 C 353.963 175.752 352.904 177.159 352.904 177.159 L 350.428 179.128 C 350.428 179.128 354.142 173.82 356.074 171.588 C 357.95 169.43 361.1 166.467 361.297 166.28 Z " fill="rgb(189,134,115)"/><path d=" M 357.068 165.848 C 356.318 166.964 354.948 168.371 354.92 168.465 C 355.014 168.371 356.243 167.517 357.63 166.683 L 357.612 166.739 C 357.612 166.739 355.192 168.84 353.204 169.749 C 351.272 170.631 347.305 175.048 347.051 175.33 C 347.118 175.133 347.97 172.751 350.428 169.749 C 352.988 166.617 358.7 162.885 358.7 162.885 L 358.568 163.335 C 358.259 164.244 357.649 164.985 357.068 165.848 Z " fill="rgb(198,138,103)"/><path d=" M 356.482 162.353 C 356.482 162.353 352.906 164.324 349.682 167.431 C 346.458 170.537 345.638 172.296 345.638 172.296 C 345.638 172.296 348.132 167.701 351.558 165.094 C 354.316 162.995 355.666 162.174 355.666 162.174 L 356.482 162.353 Z " fill="rgb(227,128,94)"/><path d=" M 360.871 165.094 C 360.871 165.094 354.684 168.036 352.456 169.951 C 350.229 171.866 348.51 174.406 348.51 174.406 C 348.51 174.406 354.099 170.065 357.146 168.701 C 360.193 167.336 360.871 165.094 360.871 165.094 Z " fill="rgb(189,134,115)"/><path d=" M 330.311 188.122 C 330.311 188.122 328.313 189.379 327.235 191.817 C 326.147 194.246 325.829 195.568 325.829 195.568 L 325.163 195.906 L 324.459 196.272 L 323.437 196.797 L 323.428 196.778 C 323.315 196.516 322.311 194.143 322.527 190.373 L 322.63 190.345 L 330.292 188.131 L 330.311 188.122 Z " fill="rgb(198,138,103)"/><linearGradient id="_lgradient_29" x1="0" y1="0" x2="1" y2="0" gradientTransform="matrix(57.41,0,0,57.41,210.226,122.812)" gradientUnits="userSpaceOnUse"><stop offset="0%" stop-opacity="1" style="stop-color:rgb(45,98,172)"/><stop offset="47.61904761904761%" stop-opacity="1" style="stop-color:rgb(43,85,162)"/><stop offset="69.84126984126983%" stop-opacity="1" style="stop-color:rgb(52,79,142)"/><stop offset="100%" stop-opacity="1" style="stop-color:rgb(56,73,126)"/></linearGradient><path d=" M 220.755 146.557 C 217.158 142.211 210.226 133.355 210.226 129.66 C 210.226 125.83 212.335 117.13 214.866 111.72 C 216.266 113.85 218.306 116.34 221.056 118.34 C 224.622 120.922 228.316 121.458 230.764 121.458 C 231.264 121.458 231.711 121.435 232.095 121.404 C 230.286 124.09 227.699 128.196 225.903 132.17 C 223.158 138.243 220.745 146.545 220.745 146.545 L 220.755 146.557 Z " fill="url(#_lgradient_29)"/><path d=" M 295.756 408.91 L 295.746 408.91 C 295.336 408.96 285.936 410 284.346 410.92 C 282.726 411.86 283.086 415.92 283.086 415.92 C 282.366 413.32 281.716 410.8 281.796 410.6 C 281.946 410.17 295.706 406.87 295.896 407.37 C 295.936 407.47 295.876 408.04 295.756 408.91 Z " fill="rgb(61,172,177)"/><path d=" M 298.643 174.773 C 298.643 174.773 299.477 177.077 300.016 178.087 C 300.555 179.096 301.451 179.989 301.451 179.989 C 301.451 179.989 287.518 183.837 286.101 183.67 C 284.684 183.503 282.908 176.302 283.518 175.42 C 284.414 174.125 298.643 174.773 298.643 174.773 Z " fill="rgb(185,53,56)"/><path d=" M 313.686 171.136 C 313.686 171.136 314.434 169.747 315.184 169.75 C 315.934 169.753 315.893 178.128 315.393 178.128 C 314.893 178.128 313.729 176.587 313.729 176.587 C 313.729 176.587 314.08 173.024 313.686 171.136 Z " fill="rgb(185,53,56)"/><path d=" M 323.675 150.901 L 322.376 153.42 L 345.638 155.991 L 347.051 152.086 L 323.675 150.901 Z " fill="rgb(51,79,128)"/><path d=" M 345.638 155.991 L 317.715 154.114 L 319.782 149.048 L 347.051 152.086 L 323.675 150.901 L 322.376 153.42 L 345.638 155.991 Z " fill="rgb(133,157,208)"/><path d=" M 337.034 171.035 L 334.195 170.826 L 334.382 170.232 L 337.034 171.035 Z " fill="rgb(51,79,128)"/><path d=" M 335.162 172.438 L 334.664 171.795 L 337.034 171.035 L 335.162 172.438 Z " fill="rgb(51,79,128)"/><path d=" M 304.548 157.125 L 305.887 158.076 L 372.976 162.174 L 372.976 161.463 L 371.559 161.463 L 304.548 157.125 Z " fill="rgb(140,162,210)"/><path d=" M 272.093 217.089 C 272.093 217.089 281.226 268.92 281.059 297.42 C 280.893 325.92 270.165 348.239 270.165 348.239 C 270.165 348.239 281.717 328.087 281.888 297.42 C 282.059 266.753 272.75 217.023 272.75 217.023 L 272.093 217.089 Z " fill="rgb(40,41,59)"/><path d=" M 256.506 232.127 L 257.425 234.904 L 271.574 233.516 L 271.986 230.883 L 256.506 232.127 Z " fill="rgb(62,130,176)"/><path d=" M 279.442 321.131 L 278.68 323.8 L 285.445 409.468 L 285.75 409.39 L 279.442 321.131 Z " fill="rgb(40,41,59)"/><path d=" M 240.351 405.795 C 240.351 405.795 240.726 383.92 242.851 357.545 C 244.976 331.17 245.859 318.161 245.859 318.161 L 246.961 320.192 C 246.961 320.192 245.059 339.92 243.559 358.503 C 242.059 377.087 240.756 405.795 240.756 405.795 L 240.351 405.795 Z " fill="rgb(40,41,59)"/><path d=" M 244.757 315.67 C 244.757 315.67 250.248 314.352 257.184 309.753 C 264.447 304.939 268.558 299.123 268.558 299.123 L 268.558 300.858 C 268.558 300.858 264.068 306.253 257.268 310.545 C 250.524 314.801 244.757 315.92 244.757 315.92 L 244.757 315.67 Z " fill="rgb(40,41,59)"/><path d=" M 217.896 107.263 C 217.896 107.263 215.585 112.482 215.585 120.67 C 215.585 128.421 225.341 138.646 225.341 138.646 L 225.903 137.318 C 225.903 137.318 217.378 128.851 216.726 120.045 C 216.142 112.17 217.896 107.263 217.896 107.263 Z " fill="rgb(40,41,59)"/><path d=" M 243.305 102.42 C 243.305 102.42 236.039 100.357 230.788 100.67 C 225.538 100.982 217.896 107.263 217.896 107.263 C 217.896 107.263 226.059 100.461 230.809 99.961 C 235.559 99.461 245.14 100.916 245.14 100.916 L 243.305 102.42 Z " fill="rgb(40,41,59)"/><path d=" M 220.745 146.545 C 220.745 146.545 223.158 138.243 225.903 132.17 C 228.935 125.463 234.217 118.38 234.217 118.38 L 229.565 130.199 L 223.148 149.583 L 220.745 146.545 Z " fill="rgb(61,172,177)"/><path d=" M 217.226 107.92 C 217.226 107.92 214.038 107.17 213.476 106.42 C 212.913 105.67 217.788 102.295 218.726 102.795 C 219.663 103.295 219.628 105.739 219.628 105.739 L 217.226 107.92 Z " fill="rgb(40,41,59)"/><path d=" M 265.84 129.898 C 265.84 129.898 267.588 130.25 269.705 131.54 C 271.82 132.829 272.716 133.684 272.716 133.684 C 272.716 133.684 272.944 131.521 272.764 130.349 C 272.584 129.177 270.609 126.86 268.121 126.216 C 266.371 125.762 265.84 125.639 265.84 125.639 L 265.909 127.27 L 264.379 125.834 L 265.84 129.898 Z " fill="rgb(25,21,19)"/><path d=" M 229.56 130.213 C 229.56 130.213 236.989 108.865 243.305 102.42 C 252.37 93.17 280.381 99.813 280.381 99.813 L 249.101 105.739 L 229.56 130.213 Z " fill="rgb(61,172,177)"/><path d=" M 274.436 126.63 C 274.436 126.63 277.656 113.42 264.026 113.09 C 261.226 113.02 258.126 113.7 254.966 114.83 C 242.966 119.1 230.065 129.78 229.565 130.199 C 229.795 129.62 238.246 109.01 244.896 103.59 C 251.196 98.45 266.856 96.91 277.216 99 L 277.276 99.01 C 279.196 99.41 280.936 99.92 282.396 100.57 C 284.236 101.37 285.626 102.38 286.396 103.59 C 291.056 110.92 274.436 126.63 274.436 126.63 Z " fill="rgb(51,79,128)"/><path d=" M 229.565 130.199 C 229.795 129.62 238.246 109.01 244.896 103.59 C 249.38 99.931 258.606 98.097 267.287 98.097 C 270.804 98.097 274.229 98.397 277.216 99 L 277.276 99.01 L 282.396 100.57 C 282.396 100.57 282.239 100.564 281.95 100.564 C 280.306 100.564 274.367 100.762 268.416 103.42 C 262.196 106.198 254.966 114.83 254.966 114.83 L 254.966 114.83 C 242.966 119.1 230.065 129.78 229.565 130.199 Z " fill="rgb(56,72,125)"/><path d=" M 252.326 408.02 C 252.406 408.27 251.796 410.56 251.026 413.11 L 251.016 413.15 L 251.016 413.16 C 249.966 416.61 248.636 420.51 248.306 420.45 C 247.736 420.33 239.946 421.1 239.796 420.45 C 239.656 419.83 238.116 410.43 237.956 406.89 C 237.916 406.12 237.946 405.62 238.066 405.56 C 238.746 405.21 252.126 407.43 252.326 408.02 Z " fill="rgb(62,130,176)"/><path d=" M 251.026 413.11 C 251.136 412.71 251.756 410.24 251.006 409.25 C 250.196 408.17 237.956 406.89 237.956 406.89 C 237.916 406.12 237.946 405.62 238.066 405.56 C 238.746 405.21 252.126 407.43 252.326 408.02 C 252.406 408.27 251.796 410.56 251.026 413.11 Z " fill="rgb(61,172,177)"/></g></g></svg>