<?xml version="1.0" encoding="UTF-8" standalone="no"?>
<!-- Generator: Gravit.io -->
<svg xmlns="http://www.w3.org/2000/svg" xmlns:xlink="http://www.w3.org/1999/xlink" style="isolation:isolate" viewBox="89.59 6.667 446.895 446.555" width="446.895pt" height="446.555pt"><g><clipPath id="_clipPath_I6KIHfWtRlKWJGqrFtAYzljSweV1Woew"><path d=" M 89.59 6.667 L 89.59 453.222 L 536.485 453.222 L 536.485 6.667 L 89.59 6.667 Z " fill="rgb(255,255,255)"/></clipPath><g clip-path="url(#_clipPath_I6KIHfWtRlKWJGqrFtAYzljSweV1Woew)"><path d=" M 229.506 338.907 L 232.12 335.786 L 152.749 289.961 L 147.372 293.065 L 175.564 309.34 L 148.496 324.968 L 120.061 308.551 L 114.685 311.655 L 195.93 358.558 L 196.784 357.538 L 197.211 357.784 L 228.373 339.826 L 228.618 339.967 L 229.074 339.422 L 229.737 339.04 L 229.506 338.907 Z " fill="rgb(217,218,216)"/><path d=" M 454.669 378.47 C 437.401 386.701 409.406 386.701 392.138 378.47 C 374.87 370.242 374.87 356.898 392.138 348.667 C 409.406 340.438 437.401 340.438 454.669 348.667 C 471.937 356.898 471.937 370.242 454.669 378.47 Z " fill="rgb(217,218,216)"/><path d=" M 321.088 421.906 C 303.82 430.137 275.825 430.137 258.557 421.906 C 241.289 413.677 241.289 400.333 258.557 392.102 C 275.825 383.873 303.82 383.873 321.088 392.102 C 338.356 400.333 338.356 413.677 321.088 421.906 Z " fill="rgb(217,218,216)"/><path d=" M 458.661 389.893 C 467.241 394.846 481.151 394.846 489.73 389.893 C 498.31 384.939 498.309 376.908 489.73 371.955 C 481.151 367.002 467.241 367.002 458.661 371.955 C 450.082 376.908 450.082 384.939 458.661 389.893 Z " fill="rgb(217,218,216)"/><path d=" M 197.033 171.095 L 152.473 292.365 L 152.463 292.384 C 152.363 292.694 152.103 292.985 151.683 293.224 C 150.563 293.875 148.743 293.875 147.623 293.224 C 147.133 292.944 146.863 292.594 146.793 292.225 C 146.773 292.114 146.773 292.005 146.793 291.895 C 146.803 291.624 146.853 291.344 146.953 291.065 L 191.633 169.115 C 192.183 167.625 193.833 166.855 195.323 167.405 C 196.813 167.955 197.583 169.605 197.033 171.095 Z " fill="rgb(56,79,86)"/><path d=" M 135.968 257.13 L 180.651 282.928 L 183.651 277.732 L 138.968 251.934 L 135.968 257.13 Z " fill="rgb(56,79,86)"/><path d=" M 168.465 238.369 L 213.148 264.167 L 216.148 258.97 L 171.465 233.173 L 168.465 238.369 Z " fill="rgb(56,79,86)"/><path d=" M 160.673 162.765 L 184.503 149.005 C 186.453 147.884 188.633 147.715 190.483 148.535 C 192.333 149.354 193.663 151.085 194.133 153.285 L 233.693 338.364 C 233.723 338.494 233.743 338.615 233.743 338.745 C 233.763 338.875 233.763 339.015 233.753 339.145 C 233.683 339.505 233.413 339.855 232.923 340.134 C 231.803 340.784 229.983 340.784 228.863 340.134 C 228.443 339.885 228.183 339.585 228.073 339.275 L 228.033 339.105 L 188.513 154.485 C 188.423 154.085 188.263 153.835 188.143 153.785 C 188.033 153.735 187.743 153.775 187.383 153.984 L 163.543 167.745 L 160.673 162.765 Z " fill="rgb(67,96,105)"/><path d=" M 199.564 339.633 L 185.048 331.252 C 184.57 330.976 184.183 330.304 184.183 329.752 L 184.183 329.407 C 184.183 328.854 184.57 328.183 185.048 327.907 L 219.875 307.8 C 220.353 307.524 221.129 307.524 221.607 307.8 L 236.123 316.181 C 236.601 316.457 236.989 317.129 236.989 317.681 L 236.989 318.026 C 236.989 318.579 236.601 319.25 236.123 319.526 L 201.296 339.633 C 200.818 339.909 200.043 339.909 199.564 339.633 Z " fill="rgb(0,189,248)"/><path d=" M 184.183 329.407 L 184.183 329.407 C 184.183 329.262 184.209 329.109 184.257 328.957 C 184.209 329.109 184.183 329.262 184.183 329.407 Z " fill="rgb(192,194,194)"/><path d=" M 200.43 339.84 C 200.117 339.84 199.804 339.771 199.565 339.633 L 185.048 331.252 C 184.57 330.976 184.183 330.304 184.183 329.752 L 184.183 329.407 C 184.183 329.262 184.209 329.109 184.257 328.957 C 184.301 328.819 184.362 328.682 184.436 328.553 L 200.43 337.788 L 200.43 339.84 Z " fill="rgb(0,189,248)"/><path d=" M 236.445 319.268 C 236.764 318.937 236.989 318.447 236.989 318.026 L 236.989 317.681 L 236.989 317.681 L 236.989 318.026 C 236.989 318.447 236.764 318.937 236.445 319.268 Z  M 236.989 317.681 C 236.989 317.405 236.892 317.099 236.735 316.827 L 236.735 316.827 C 236.892 317.099 236.989 317.405 236.989 317.681 Z " fill="rgb(200,202,201)"/><path d=" M 200.43 339.84 L 200.43 337.788 L 236.735 316.827 C 236.892 317.099 236.989 317.405 236.989 317.681 L 236.989 317.681 L 236.989 318.026 C 236.989 318.447 236.764 318.937 236.445 319.268 C 236.346 319.372 236.237 319.46 236.123 319.526 L 218.71 329.58 L 201.296 339.633 C 201.285 339.64 201.274 339.646 201.262 339.652 C 201.028 339.778 200.729 339.84 200.43 339.84 Z " fill="rgb(0,189,248)"/><path d=" M 193.27 310.202 L 178.754 301.821 C 178.276 301.545 177.888 300.873 177.888 300.321 L 177.888 299.975 C 177.888 299.423 178.276 298.751 178.754 298.475 L 213.581 278.368 C 214.059 278.092 214.835 278.092 215.313 278.368 L 229.829 286.749 C 230.307 287.026 230.695 287.697 230.695 288.249 L 230.695 288.595 C 230.695 289.147 230.307 289.819 229.829 290.095 L 195.002 310.202 C 194.524 310.478 193.749 310.478 193.27 310.202 Z " fill="rgb(0,189,248)"/><path d=" M 194.136 310.409 C 194.012 310.409 193.888 310.398 193.768 310.376 C 193.888 310.398 194.012 310.409 194.136 310.409 L 194.136 310.409 Z  M 177.944 299.59 C 177.988 299.431 178.056 299.271 178.142 299.122 L 178.142 299.122 C 178.056 299.271 177.988 299.431 177.944 299.59 Z " fill="rgb(212,214,213)"/><path d=" M 194.136 310.409 C 194.012 310.409 193.888 310.398 193.768 310.376 C 193.586 310.343 193.415 310.285 193.27 310.202 L 178.754 301.821 L 178.754 301.821 C 178.282 301.548 177.898 300.889 177.889 300.34 C 177.889 300.334 177.888 300.327 177.888 300.321 L 177.888 299.975 C 177.888 299.851 177.908 299.721 177.944 299.59 C 177.988 299.431 178.056 299.271 178.142 299.122 L 194.136 308.356 L 194.136 310.409 Z " fill="rgb(0,189,248)"/><path d=" M 194.136 310.409 L 194.136 310.409 C 194.136 310.409 194.136 310.409 194.136 310.409 C 194.24 310.409 194.343 310.401 194.444 310.386 C 194.343 310.401 194.24 310.409 194.136 310.409 Z  M 224.084 293.411 L 224.084 293.411 L 229.829 290.095 C 230.307 289.819 230.695 289.147 230.695 288.595 L 230.695 288.249 L 230.695 288.249 L 230.695 288.595 C 230.695 289.147 230.307 289.819 229.829 290.095 L 224.084 293.411 Z  M 230.465 287.438 C 230.457 287.424 230.449 287.41 230.441 287.396 L 230.441 287.396 C 230.449 287.41 230.457 287.424 230.465 287.438 Z " fill="rgb(200,202,201)"/><path d=" M 194.136 310.409 C 194.136 310.409 194.136 310.409 194.136 310.409 L 194.136 308.356 L 230.441 287.396 C 230.449 287.41 230.457 287.424 230.465 287.438 C 230.607 287.699 230.695 287.987 230.695 288.249 L 230.695 288.595 C 230.695 289.147 230.307 289.819 229.829 290.095 L 224.084 293.411 L 218.893 296.408 L 195.002 310.202 L 195.002 310.202 C 194.842 310.294 194.649 310.356 194.444 310.386 C 194.343 310.401 194.24 310.409 194.136 310.409 Z " fill="rgb(0,189,248)"/><path d=" M 186.976 280.77 L 172.46 272.389 C 171.982 272.113 171.594 271.442 171.594 270.889 L 171.594 270.544 C 171.594 269.992 171.982 269.32 172.46 269.044 L 207.287 248.937 C 207.765 248.661 208.541 248.661 209.019 248.937 L 223.535 257.318 C 224.013 257.594 224.401 258.266 224.401 258.818 L 224.401 259.164 C 224.401 259.716 224.013 260.387 223.535 260.664 L 188.708 280.77 C 188.23 281.047 187.455 281.047 186.976 280.77 Z " fill="rgb(0,189,248)"/><path d=" M 187.303 280.905 C 187.185 280.872 187.074 280.827 186.976 280.771 L 183.167 278.571 L 183.167 278.571 L 186.976 280.77 C 187.074 280.827 187.185 280.872 187.303 280.905 Z " fill="rgb(212,214,213)"/><path d=" M 183.167 278.571 L 179.718 276.58 L 183.167 278.571 L 183.167 278.571 Z " fill="rgb(52,72,79)"/><path d=" M 171.594 270.544 L 171.594 270.544 C 171.594 270.268 171.691 269.962 171.848 269.69 L 171.848 269.69 C 171.691 269.962 171.594 270.268 171.594 270.544 Z " fill="rgb(212,214,213)"/><path d=" M 187.842 280.978 C 187.657 280.978 187.472 280.954 187.303 280.905 C 187.185 280.872 187.074 280.827 186.976 280.77 L 183.167 278.571 L 179.718 276.58 L 172.46 272.389 C 172.042 272.148 171.693 271.603 171.612 271.101 C 171.6 271.029 171.594 270.958 171.594 270.889 L 171.594 270.544 C 171.594 270.268 171.691 269.962 171.848 269.69 L 187.842 278.925 L 187.842 280.978 Z " fill="rgb(0,189,248)"/><path d=" M 223.535 260.664 L 223.535 260.664 C 224.013 260.387 224.401 259.716 224.401 259.164 L 224.401 258.818 L 224.401 258.818 L 224.401 259.164 C 224.401 259.716 224.013 260.387 223.535 260.664 L 223.535 260.664 Z  M 224.401 258.818 C 224.401 258.811 224.401 258.804 224.4 258.797 C 224.401 258.804 224.401 258.811 224.401 258.818 Z  M 224.259 258.189 C 224.227 258.112 224.189 258.037 224.147 257.964 L 224.147 257.964 C 224.189 258.037 224.227 258.112 224.259 258.189 Z " fill="rgb(200,202,201)"/><path d=" M 187.842 280.978 L 187.842 278.925 L 224.147 257.964 C 224.189 258.037 224.227 258.112 224.259 258.189 C 224.346 258.39 224.397 258.601 224.4 258.797 C 224.401 258.804 224.401 258.811 224.401 258.818 L 224.401 258.818 L 224.401 259.164 C 224.401 259.716 224.013 260.387 223.535 260.664 L 223.535 260.664 L 206.121 270.717 L 188.708 280.77 C 188.697 280.777 188.686 280.783 188.674 280.789 C 188.44 280.915 188.141 280.978 187.842 280.978 Z " fill="rgb(0,189,248)"/><path d=" M 180.682 251.339 L 166.166 242.958 C 165.688 242.682 165.3 242.01 165.3 241.458 L 165.3 241.112 C 165.3 240.56 165.688 239.889 166.166 239.613 L 200.993 219.506 C 201.471 219.229 202.246 219.229 202.725 219.506 L 217.241 227.887 C 217.719 228.163 218.106 228.834 218.106 229.387 L 218.106 229.732 C 218.106 230.284 217.719 230.956 217.241 231.232 L 182.414 251.339 C 181.936 251.615 181.161 251.615 180.682 251.339 Z " fill="rgb(0,189,248)"/><path d=" M 181.548 251.546 L 181.548 251.546 C 181.685 251.546 181.822 251.533 181.953 251.507 C 181.822 251.533 181.685 251.546 181.548 251.546 Z  M 181.953 251.507 C 181.954 251.507 181.954 251.507 181.954 251.506 C 181.954 251.507 181.954 251.507 181.953 251.507 Z " fill="rgb(200,202,201)"/><path d=" M 217.955 228.734 C 217.925 228.666 217.891 228.598 217.853 228.533 L 217.853 228.533 C 217.891 228.598 217.925 228.666 217.955 228.734 L 217.955 228.734 Z " fill="rgb(209,211,211)"/><path d=" M 211.502 234.545 L 211.502 234.545 L 217.241 231.232 C 217.719 230.956 218.106 230.284 218.106 229.732 L 218.106 229.387 C 218.106 229.177 218.051 228.95 217.955 228.734 L 217.955 228.734 C 218.051 228.95 218.107 229.177 218.107 229.387 L 218.107 229.732 C 218.107 230.284 217.719 230.956 217.241 231.232 L 211.502 234.545 Z " fill="rgb(200,202,201)"/><path d=" M 181.548 251.546 L 181.548 249.494 L 217.853 228.533 C 217.891 228.598 217.925 228.666 217.955 228.734 C 218.051 228.95 218.106 229.177 218.106 229.387 L 218.106 229.732 C 218.106 230.284 217.719 230.956 217.241 231.232 L 211.502 234.545 L 206.294 237.552 L 192.672 245.417 L 186.672 248.881 L 182.414 251.339 L 182.414 251.339 C 182.28 251.417 182.122 251.472 181.954 251.506 C 181.954 251.507 181.954 251.507 181.953 251.507 C 181.953 251.507 181.953 251.507 181.953 251.507 C 181.822 251.533 181.685 251.546 181.548 251.546 Z " fill="rgb(0,189,248)"/><path d=" M 181.548 251.546 C 181.314 251.546 181.079 251.508 180.875 251.43 C 181.079 251.508 181.314 251.546 181.548 251.546 L 181.548 251.546 L 181.548 251.546 L 181.548 251.546 Z " fill="rgb(212,214,213)"/><path d=" M 165.318 240.903 C 165.318 240.902 165.318 240.9 165.318 240.899 C 165.318 240.9 165.318 240.902 165.318 240.903 Z  M 165.323 240.871 C 165.324 240.867 165.324 240.864 165.325 240.86 C 165.324 240.864 165.324 240.867 165.323 240.871 Z  M 165.327 240.851 C 165.356 240.703 165.407 240.552 165.476 240.408 C 165.407 240.552 165.356 240.703 165.327 240.851 Z " fill="rgb(222,223,222)"/><path d=" M 181.548 251.546 C 181.314 251.546 181.079 251.508 180.875 251.43 C 180.807 251.404 180.742 251.374 180.682 251.339 L 166.166 242.958 C 165.688 242.681 165.3 242.01 165.3 241.458 L 165.3 241.458 L 165.3 241.112 C 165.3 241.065 165.303 241.017 165.309 240.968 C 165.309 240.968 165.309 240.968 165.309 240.968 C 165.311 240.946 165.314 240.924 165.318 240.903 C 165.318 240.902 165.318 240.9 165.318 240.899 C 165.32 240.89 165.321 240.88 165.323 240.871 C 165.324 240.867 165.324 240.864 165.325 240.86 C 165.326 240.857 165.326 240.854 165.327 240.851 C 165.356 240.703 165.407 240.552 165.476 240.408 C 165.5 240.357 165.526 240.308 165.554 240.259 L 181.548 249.494 L 181.548 251.546 C 181.548 251.546 181.548 251.546 181.548 251.546 Z " fill="rgb(0,189,248)"/><path d=" M 174.388 221.908 L 150.265 207.983 C 149.787 207.707 149.399 207.036 149.399 206.483 L 149.399 206.138 C 149.399 205.585 149.787 204.914 150.265 204.638 L 185.092 184.531 C 185.57 184.255 186.346 184.255 186.824 184.531 L 210.946 198.455 C 211.425 198.731 211.812 199.403 211.812 199.955 L 211.812 200.301 C 211.812 200.853 211.425 201.525 210.946 201.801 L 176.12 221.908 C 175.642 222.184 174.866 222.184 174.388 221.908 Z " fill="rgb(0,189,248)"/><path d=" M 175.254 222.115 L 175.254 222.115 C 175.568 222.115 175.881 222.046 176.12 221.908 L 176.12 221.908 C 175.881 222.046 175.568 222.115 175.254 222.115 Z " fill="rgb(51,69,75)"/><path d=" M 211.812 199.955 C 211.812 199.679 211.716 199.373 211.559 199.102 L 211.559 199.102 C 211.716 199.373 211.812 199.679 211.812 199.955 Z " fill="rgb(209,211,211)"/><path d=" M 175.254 222.115 L 175.254 220.062 L 211.559 199.102 C 211.716 199.373 211.812 199.679 211.812 199.955 L 211.812 199.955 L 211.812 200.301 C 211.812 200.853 211.425 201.525 210.946 201.801 L 210.946 201.801 L 193.533 211.854 L 176.12 221.908 C 175.881 222.046 175.568 222.115 175.254 222.115 Z " fill="rgb(0,189,248)"/><path d=" M 172.657 220.908 L 162.327 214.946 L 172.657 220.908 L 172.657 220.908 Z " fill="rgb(222,223,222)"/><path d=" M 175.254 222.115 C 174.941 222.115 174.627 222.046 174.388 221.908 L 172.657 220.908 L 172.657 220.908 L 174.388 221.908 C 174.627 222.046 174.941 222.115 175.254 222.115 L 175.254 222.115 L 175.254 222.115 L 175.254 222.115 Z " fill="rgb(52,72,79)"/><path d=" M 149.399 206.138 C 149.399 205.862 149.496 205.556 149.653 205.284 L 149.653 205.284 C 149.496 205.556 149.399 205.862 149.399 206.138 Z " fill="rgb(222,223,222)"/><path d=" M 175.254 222.115 C 174.941 222.115 174.627 222.046 174.388 221.908 L 172.657 220.908 L 162.327 214.946 L 150.265 207.983 C 149.787 207.707 149.399 207.035 149.399 206.483 L 149.399 206.483 L 149.399 206.138 L 149.399 206.138 C 149.399 205.862 149.496 205.556 149.653 205.284 L 175.254 220.062 L 175.254 222.115 C 175.254 222.115 175.254 222.115 175.254 222.115 Z " fill="rgb(0,189,248)"/><path d=" M 164.543 189.855 L 120.023 310.985 L 120.013 311.025 L 119.913 311.295 C 119.783 311.545 119.543 311.784 119.193 311.995 C 118.073 312.635 116.253 312.635 115.123 311.995 C 114.633 311.705 114.363 311.355 114.293 310.995 C 114.283 310.885 114.283 310.775 114.293 310.664 C 114.303 310.375 114.363 310.105 114.463 309.825 L 159.143 187.875 C 159.683 186.385 161.333 185.625 162.833 186.164 C 164.323 186.715 165.083 188.365 164.543 189.855 Z " fill="rgb(56,79,86)"/><path d=" M 163.543 167.745 C 162.223 168.515 161.313 170.555 161.633 172.045 L 201.203 357.115 C 201.243 357.265 201.263 357.414 201.263 357.565 C 201.273 357.664 201.273 357.775 201.263 357.885 C 201.203 358.245 200.923 358.605 200.433 358.895 C 199.313 359.545 197.493 359.545 196.373 358.895 C 195.963 358.655 195.703 358.365 195.583 358.065 L 195.573 358.034 L 195.523 357.795 L 156.013 173.255 C 155.183 169.365 157.223 164.755 160.673 162.765" fill="rgb(67,96,105)"/><path d=" M 240.916 262.663 L 237.123 260.473 C 235.927 259.783 234.958 258.104 234.958 256.723 L 234.957 83.486 C 234.957 82.105 235.926 80.426 237.122 79.736 L 362.777 7.189 C 363.972 6.499 365.911 6.498 367.107 7.189 L 370.902 9.379 C 372.097 10.069 373.067 11.748 373.067 13.129 L 373.067 186.367 C 373.067 187.747 372.098 189.426 370.902 190.117 L 245.246 262.663 C 244.05 263.354 242.111 263.354 240.916 262.663 Z " fill="rgb(3,162,210)"/><path d=" M 236.995 79.813 C 237.038 79.785 237.08 79.759 237.123 79.734 L 362.773 7.184 C 363.373 6.839 364.158 6.667 364.942 6.667 C 365.725 6.667 366.508 6.839 367.103 7.184 L 370.903 9.374 C 371.438 9.684 371.93 10.196 372.309 10.791 C 371.93 10.198 371.439 9.689 370.902 9.379 L 367.107 7.189 C 366.509 6.844 365.726 6.671 364.942 6.671 C 364.158 6.671 363.375 6.844 362.777 7.189 L 237.122 79.736 C 237.079 79.76 237.037 79.786 236.995 79.813 Z  M 372.311 10.795 C 372.311 10.794 372.31 10.793 372.31 10.792 C 372.31 10.793 372.311 10.794 372.311 10.795 Z " fill="rgb(254,254,254)"/><path d=" M 243.713 86.044 L 235.593 81.354 C 235.955 80.723 236.447 80.169 236.995 79.813 C 237.037 79.786 237.079 79.76 237.122 79.736 L 362.777 7.189 C 363.375 6.844 364.158 6.671 364.942 6.671 C 365.726 6.671 366.509 6.844 367.107 7.189 L 370.902 9.379 C 371.439 9.689 371.93 10.198 372.309 10.791 C 372.309 10.791 372.309 10.792 372.31 10.792 C 372.31 10.793 372.311 10.794 372.311 10.795 C 372.702 11.41 372.972 12.114 373.043 12.774 C 372.941 12.012 372.486 11.578 371.865 11.578 C 371.575 11.578 371.247 11.673 370.903 11.874 L 245.243 84.424 C 244.653 84.764 244.113 85.364 243.713 86.044 Z " fill="rgb(0,189,248)"/><path d=" M 234.953 224.968 L 234.953 83.484 C 234.953 83.143 235.014 82.785 235.123 82.428 C 235.016 82.786 234.957 83.145 234.957 83.486 L 234.958 224.967 L 234.953 224.968 Z " fill="rgb(222,223,222)"/><path d=" M 242.658 263.164 C 242.02 263.115 241.403 262.947 240.913 262.664 L 237.123 260.475 C 235.923 259.784 234.953 258.105 234.953 256.724 L 234.953 224.968 L 234.958 224.967 L 234.958 256.723 C 234.958 258.104 235.927 259.783 237.123 260.473 L 240.916 262.663 C 241.406 262.946 242.021 263.113 242.658 263.164 Z " fill="rgb(212,214,213)"/><path d=" M 243.064 263.18 C 242.929 263.18 242.793 263.175 242.658 263.164 C 242.021 263.113 241.406 262.946 240.916 262.663 L 237.123 260.473 C 235.927 259.783 234.958 258.104 234.958 256.723 L 234.958 224.967 L 234.957 83.486 C 234.957 83.145 235.016 82.786 235.123 82.428 C 235.234 82.063 235.396 81.698 235.593 81.354 L 243.713 86.044 C 243.323 86.724 243.083 87.484 243.083 88.174 L 243.083 261.415 C 243.083 262.392 243.571 262.958 244.278 262.958 C 244.425 262.958 244.58 262.934 244.743 262.884 C 244.236 263.082 243.65 263.18 243.064 263.18 Z " fill="rgb(0,189,248)"/><path d=" M 359.896 184.836 C 353.704 189.705 347.776 188.379 346.656 181.875 C 345.536 175.372 350.603 167.107 356.796 162.239 C 362.988 157.371 367.96 157.741 369.081 164.245 C 370.201 170.749 366.089 179.968 359.896 184.836 Z  M 382.885 149.135 L 382.886 149.145 C 382.6 148.973 382.224 148.988 381.838 149.241 L 376.78 152.57 C 376.088 153.026 375.225 152.791 374.75 152.112 C 374.444 151.676 374.115 151.274 373.764 150.905 C 373.192 150.305 372.883 149.273 373.171 148.496 L 381.209 143.401 L 375.208 139.938 L 375.204 139.944 C 375.084 139.875 374.955 139.817 374.807 139.784 L 370.995 138.931 C 370.186 138.75 369.219 139.198 368.834 139.932 L 365.249 146.763 C 364.864 147.497 363.886 148.188 363.083 148.392 L 362.862 148.457 C 363.083 147.81 363.176 146.868 363.176 146.868 L 357.157 143.395 L 357.159 143.401 C 356.837 143.213 356.422 143.249 356.031 143.556 L 350.317 148.048 C 349.666 148.56 349.18 149.645 349.232 150.472 L 349.573 155.908 C 349.625 156.735 349.215 157.903 348.684 158.538 C 347.748 159.658 346.862 160.833 346.031 162.05 C 345.564 162.734 344.534 163.27 343.706 163.229 L 340.033 163.047 C 339.206 163.006 338.262 163.587 337.924 164.343 L 334.471 172.085 C 334.162 172.778 334.429 173.566 335.06 173.944 L 335.059 173.951 L 339.13 176.3 C 339.261 176.634 339.305 177.003 339.225 177.354 C 338.942 178.599 338.728 179.833 338.589 181.047 C 338.495 181.87 337.961 182.995 337.351 183.556 L 332.289 188.21 C 331.679 188.771 331.299 189.887 331.439 190.704 L 332.39 196.225 C 332.452 196.585 332.622 196.836 332.847 196.973 L 332.839 196.978 L 338.877 200.462 L 338.957 193.55 C 339.649 193.095 340.512 193.33 340.987 194.008 C 341.292 194.444 341.622 194.847 341.973 195.216 C 342.544 195.816 342.853 196.848 342.566 197.625 L 339.986 204.602 C 339.757 205.221 339.984 205.834 340.492 206.152 L 340.488 206.157 L 346.516 209.636 L 348.158 205.145 L 350.488 199.357 C 350.873 198.623 351.851 197.932 352.654 197.728 C 353.421 197.533 354.205 197.275 355.002 196.952 C 355.77 196.641 356.565 196.983 356.804 197.776 L 358.094 202.055 C 358.191 202.375 358.368 202.598 358.585 202.722 L 358.581 202.726 L 364.627 206.212 L 363.569 199.527 L 365.419 198.072 C 366.07 197.56 366.556 196.475 366.504 195.648 L 366.163 190.212 C 366.112 189.385 366.521 188.217 367.053 187.582 C 367.989 186.462 369.403 185.864 370.234 184.647 C 370.701 183.963 371.203 182.851 372.031 182.891 L 375.704 183.073 C 376.531 183.114 377.475 182.533 377.813 181.777 L 381.266 174.035 C 381.603 173.279 381.259 172.402 380.497 172.077 L 377.53 170.811 C 376.768 170.486 376.328 169.574 376.511 168.766 C 376.794 167.521 377.008 166.287 377.147 165.073 C 377.241 164.25 377.775 163.126 378.385 162.565 L 383.447 157.91 C 383.88 157.512 384.187 156.833 384.284 156.181 L 388.882 152.596 L 382.885 149.135 Z " fill="rgb(44,61,66)"/><path d=" M 337.295 183.608 L 332.289 188.21 C 331.92 188.55 331.653 189.095 331.517 189.653 L 338.952 193.946 L 338.957 193.55 C 339.649 193.095 340.512 193.33 340.987 194.008 L 340.994 194.016 L 348.158 189.88 L 337.295 183.608 Z " fill="rgb(67,96,105)"/><path d=" M 350.048 169.674 C 350.613 168.8 351.229 167.949 351.89 167.127 L 344.755 163.005 C 344.405 163.149 344.041 163.245 343.706 163.229 L 340.033 163.047 C 339.512 163.022 338.945 163.243 338.511 163.599 L 349.494 169.94 L 350.048 169.674 Z " fill="rgb(67,96,105)"/><path d=" M 388.884 152.592 C 388.604 152.432 388.234 152.462 387.854 152.712 L 382.794 156.042 C 382.104 156.492 381.244 156.262 380.764 155.582 C 380.454 155.142 380.134 154.742 379.774 154.372 C 379.204 153.772 378.894 152.742 379.184 151.962 L 379.664 150.672 L 381.834 149.242 C 382.224 148.992 382.604 148.972 382.884 149.142 L 382.884 149.132 L 388.884 152.592 Z " fill="rgb(67,96,105)"/><path d=" M 373.932 151.111 L 373.764 150.905 C 373.192 150.305 372.883 149.273 373.171 148.496 L 381.209 143.401 L 375.208 139.938 L 375.204 139.944 C 375.084 139.875 374.955 139.817 374.807 139.784 L 370.995 138.931 C 370.186 138.75 369.219 139.198 368.834 139.932 L 365.249 146.763 C 365.076 147.093 364.774 147.408 364.431 147.68 L 372.53 152.356 L 373.932 151.111 Z " fill="rgb(67,96,105)"/><path d=" M 349.378 149.546 L 356.815 153.84 L 362.928 148.237 C 363.101 147.617 363.176 146.868 363.176 146.868 L 357.157 143.395 L 357.159 143.401 C 356.837 143.213 356.422 143.249 356.031 143.556 L 350.317 148.048 C 349.894 148.381 349.559 148.957 349.378 149.546 Z " fill="rgb(67,96,105)"/><path d=" M 365.911 188.307 C 359.719 193.176 353.79 191.85 352.67 185.346 C 351.55 178.842 355.663 169.623 361.855 164.755 C 368.048 159.886 373.975 161.211 375.095 167.715 C 376.215 174.219 372.103 183.438 365.911 188.307 Z  M 390.311 158.887 L 389.361 153.365 C 389.22 152.549 388.545 152.256 387.853 152.712 L 382.795 156.041 C 382.103 156.496 381.24 156.261 380.764 155.583 C 380.459 155.147 380.13 154.744 379.778 154.375 C 379.207 153.775 378.898 152.743 379.185 151.966 L 381.765 144.988 C 382.053 144.211 381.63 143.435 380.822 143.254 L 377.009 142.402 C 376.201 142.221 375.233 142.669 374.848 143.403 L 371.263 150.234 C 370.878 150.967 369.9 151.659 369.097 151.863 C 368.33 152.058 367.546 152.316 366.749 152.638 C 365.981 152.949 365.185 152.608 364.947 151.815 L 363.657 147.536 C 363.418 146.743 362.697 146.515 362.046 147.027 L 356.332 151.519 C 355.681 152.031 355.195 153.116 355.247 153.943 L 355.587 159.378 C 355.639 160.205 355.23 161.374 354.699 162.009 C 353.762 163.129 352.876 164.304 352.046 165.521 C 351.578 166.205 350.548 166.74 349.721 166.699 L 346.048 166.518 C 345.22 166.477 344.276 167.057 343.939 167.814 L 340.485 175.555 C 340.148 176.312 340.492 177.189 341.254 177.514 L 344.221 178.779 C 344.983 179.104 345.423 180.017 345.24 180.825 C 344.957 182.069 344.743 183.304 344.604 184.518 C 344.509 185.341 343.976 186.466 343.366 187.026 L 338.304 191.681 C 337.694 192.242 337.313 193.358 337.454 194.174 L 338.405 199.696 C 338.545 200.512 339.22 200.805 339.912 200.349 L 344.971 197.021 C 345.663 196.566 346.526 196.8 347.002 197.479 C 347.307 197.915 347.636 198.317 347.987 198.686 C 348.559 199.286 348.867 200.319 348.58 201.096 L 346.001 208.073 C 345.713 208.85 346.136 209.626 346.944 209.807 L 350.756 210.659 C 351.565 210.84 352.532 210.392 352.917 209.659 L 356.502 202.827 C 356.887 202.094 357.866 201.403 358.669 201.199 C 359.436 201.003 360.22 200.745 361.016 200.423 C 361.784 200.112 362.58 200.453 362.819 201.246 L 364.108 205.525 C 364.348 206.318 365.069 206.546 365.721 206.034 L 371.433 201.543 C 372.085 201.031 372.571 199.945 372.519 199.118 L 372.178 193.683 C 372.126 192.856 372.536 191.688 373.067 191.052 C 374.004 189.933 374.89 188.757 375.72 187.541 C 376.188 186.856 377.218 186.321 378.045 186.362 L 381.718 186.543 C 382.545 186.584 383.49 186.004 383.827 185.247 L 387.281 177.506 C 387.618 176.749 387.274 175.872 386.512 175.547 L 383.544 174.282 C 382.782 173.957 382.342 173.045 382.526 172.237 C 382.809 170.992 383.023 169.757 383.162 168.544 C 383.256 167.721 383.79 166.596 384.399 166.035 L 389.462 161.38 C 390.072 160.82 390.452 159.703 390.311 158.887 Z " fill="rgb(0,189,248)"/><path d=" M 301.798 150.698 C 290.582 157.174 283.611 152.58 283.611 139.629 C 283.611 126.679 292.879 110.814 304.096 104.339 C 315.311 97.863 322.105 102.574 322.105 115.524 C 322.105 128.476 313.013 144.223 301.798 150.698 Z  M 354.289 95.683 L 348.366 92.267 L 348.365 92.273 C 348.121 92.133 347.796 92.124 347.436 92.286 L 336.736 97.109 C 335.981 97.45 335.204 97.074 334.954 96.284 C 334.332 94.318 333.53 92.547 332.569 90.979 C 332.136 90.273 332.038 89.129 332.406 88.387 L 339.538 74.007 C 339.906 73.265 339.623 72.328 338.905 71.913 L 331.166 67.445 C 330.448 67.031 329.495 67.254 329.036 67.944 L 320.149 81.31 C 319.691 82 318.65 82.487 317.822 82.465 C 316.816 82.439 315.778 82.491 314.717 82.611 L 314.717 72.837 L 308.779 69.413 L 308.779 69.414 C 308.516 69.275 308.171 69.292 307.808 69.501 L 295.787 76.442 C 295.07 76.856 294.428 77.861 294.354 78.686 L 293.15 92.061 C 293.076 92.886 292.509 93.998 291.9 94.559 C 289.56 96.713 287.326 99.087 285.222 101.627 C 284.694 102.265 283.643 102.569 282.861 102.296 L 275.145 99.601 C 274.362 99.328 273.393 99.688 272.978 100.406 L 264.141 115.712 C 263.727 116.43 263.9 117.45 264.527 117.99 L 270.719 123.326 C 271.347 123.866 271.608 124.93 271.32 125.707 C 270.172 128.799 269.234 131.921 268.538 135.024 C 268.356 135.833 267.677 136.878 267 137.355 L 256.019 145.084 C 255.341 145.561 254.792 146.619 254.792 147.448 L 254.792 161.328 C 254.792 161.756 254.957 162.065 255.219 162.22 L 255.216 162.223 L 261.137 165.637 L 269.931 161.475 C 270.271 162.187 270.632 162.874 271.027 163.519 C 271.459 164.225 271.557 165.369 271.189 166.111 L 264.058 180.491 C 263.69 181.233 263.973 182.17 264.69 182.585 L 272.429 187.053 C 273.147 187.467 274.1 187.244 274.559 186.554 L 283.446 173.188 C 283.905 172.498 284.945 172.011 285.774 172.032 C 287.612 172.081 289.547 171.89 291.561 171.446 C 292.37 171.267 293.083 171.752 293.165 172.576 L 294.338 184.254 C 294.378 184.653 294.553 184.933 294.801 185.073 L 294.798 185.076 L 300.709 188.484 L 307.808 178.056 C 308.525 177.642 309.167 176.637 309.242 175.812 L 310.445 162.437 C 310.52 161.612 311.219 160.734 311.984 160.414 C 315.417 158.975 318.889 156.49 321.321 153.864 C 321.883 153.256 322.933 152.95 323.715 153.225 L 328.452 154.893 C 329.233 155.168 330.203 154.81 330.617 154.092 L 339.454 138.786 C 339.868 138.069 339.695 137.049 339.068 136.508 L 334.998 133.001 C 334.37 132.46 334.11 131.396 334.337 130.599 C 335.313 127.174 335.534 122.695 335.441 119.507 C 335.417 118.679 335.918 117.621 336.595 117.144 L 347.577 109.415 C 348.254 108.938 348.803 107.88 348.803 107.051 L 354.051 100.76 L 354.289 95.683 Z " fill="rgb(44,61,66)"/><path d=" M 337.179 78.763 L 339.538 74.007 C 339.906 73.265 339.623 72.328 338.905 71.913 L 331.166 67.445 C 330.448 67.031 329.495 67.254 329.036 67.944 L 320.149 81.31 C 320.005 81.527 319.793 81.713 319.558 81.88 L 329.506 87.623 L 337.179 78.763 Z " fill="rgb(67,96,105)"/><path d=" M 267.849 136.452 C 267.592 136.815 267.299 137.144 267 137.355 L 256.019 145.084 C 255.742 145.279 255.5 145.582 255.295 145.915 L 261.996 149.783 L 276.575 141.49 L 267.849 136.452 Z " fill="rgb(67,96,105)"/><path d=" M 274.524 99.512 C 273.906 99.535 273.287 99.871 272.978 100.406 L 264.141 115.712 C 263.949 116.046 263.895 116.444 263.943 116.83 L 271.56 121.228 L 283.656 104.863 L 274.524 99.512 Z " fill="rgb(67,96,105)"/><path d=" M 294.587 77.89 L 304.012 83.331 L 314.717 77.15 L 314.717 72.837 L 308.779 69.413 L 308.779 69.414 C 308.516 69.275 308.171 69.292 307.808 69.501 L 295.787 76.442 C 295.293 76.727 294.849 77.296 294.587 77.89 Z " fill="rgb(67,96,105)"/><path d=" M 307.709 154.107 C 296.494 160.582 287.401 155.333 287.401 142.382 C 287.401 129.432 296.494 113.684 307.709 107.208 C 318.925 100.733 328.017 105.982 328.017 118.933 C 328.017 131.884 318.925 147.631 307.709 154.107 Z  M 354.715 110.46 L 354.715 96.578 C 354.715 95.75 354.102 95.354 353.347 95.695 L 342.648 100.518 C 341.893 100.858 341.116 100.482 340.866 99.693 C 340.243 97.726 339.441 95.956 338.48 94.388 C 338.047 93.681 337.95 92.537 338.318 91.795 L 345.449 77.416 C 345.817 76.673 345.534 75.736 344.817 75.322 L 337.077 70.853 C 336.36 70.439 335.406 70.663 334.948 71.352 L 326.06 84.719 C 325.601 85.408 324.561 85.896 323.733 85.874 C 321.894 85.826 319.96 86.016 317.946 86.461 C 317.137 86.639 316.424 86.154 316.341 85.33 L 315.168 73.653 C 315.086 72.829 314.437 72.496 313.719 72.91 L 301.699 79.85 C 300.981 80.264 300.339 81.269 300.265 82.094 L 299.061 95.47 C 298.987 96.295 298.42 97.406 297.811 97.967 C 295.472 100.122 293.238 102.495 291.133 105.035 C 290.605 105.673 289.554 105.978 288.772 105.704 L 281.055 103.01 C 280.273 102.736 279.303 103.097 278.889 103.814 L 270.052 119.122 C 269.637 119.839 269.81 120.859 270.438 121.4 L 276.63 126.735 C 277.257 127.276 277.519 128.339 277.231 129.116 C 276.083 132.208 275.145 135.33 274.449 138.433 C 274.268 139.241 273.589 140.286 272.911 140.763 L 261.93 148.493 C 261.253 148.97 260.704 150.028 260.704 150.856 L 260.704 164.737 C 260.704 165.565 261.316 165.961 262.071 165.62 L 272.77 160.797 C 273.526 160.457 274.303 160.833 274.552 161.622 C 275.175 163.589 275.977 165.359 276.937 166.928 C 277.37 167.634 277.468 168.779 277.1 169.521 L 269.968 183.9 C 269.6 184.642 269.883 185.58 270.601 185.994 L 278.34 190.461 C 279.057 190.876 280.011 190.652 280.47 189.962 L 289.357 176.597 C 289.816 175.907 290.857 175.42 291.685 175.441 C 293.524 175.489 295.458 175.298 297.472 174.854 C 298.281 174.675 298.994 175.16 299.077 175.985 L 300.25 187.663 C 300.333 188.487 300.981 188.82 301.699 188.405 L 313.719 181.465 C 314.437 181.051 315.079 180.046 315.153 179.221 L 316.357 165.845 C 316.431 165.02 316.998 163.909 317.607 163.348 C 319.946 161.194 322.18 158.821 324.283 156.281 C 324.812 155.643 325.863 155.338 326.645 155.611 L 334.362 158.305 C 335.144 158.578 336.114 158.218 336.528 157.501 L 345.366 142.194 C 345.78 141.477 345.607 140.457 344.979 139.916 L 338.788 134.581 C 338.16 134.04 337.898 132.977 338.187 132.2 C 339.334 129.108 340.273 125.986 340.969 122.883 C 341.15 122.075 341.829 121.03 342.507 120.553 L 353.488 112.823 C 354.166 112.346 354.715 111.288 354.715 110.46 Z " fill="rgb(0,189,248)"/><path d=" M 354.293 95.684 L 354.293 95.694 C 354.053 95.534 353.713 95.524 353.343 95.694 L 342.643 100.514 C 341.893 100.854 341.113 100.484 340.863 99.694 C 340.443 98.344 339.933 97.094 339.333 95.934 L 347.433 92.284 C 347.793 92.124 348.123 92.134 348.363 92.274 L 348.363 92.264 L 354.293 95.684 Z " fill="rgb(67,96,105)"/><path d=" M 438.528 356.28 L 438.528 355.142 C 438.079 356.477 435.997 362.223 432.84 365.103 C 430.33 367.392 426.906 370.037 426.035 372.589 C 425.13 375.243 430.8 376.135 433.145 375.72 C 435.87 375.237 439.395 373.691 441.314 371.334 C 442.663 369.677 443.522 367.712 444.485 366.408 C 445.448 365.105 447.669 363.65 448.19 362.141 C 448.476 361.313 448.136 359.498 447.734 357.964 C 447.365 356.557 446.966 355.01 446.485 355.142 C 446.484 355.314 446.485 356.01 446.485 356.01 C 445.908 356.65 444.309 357.285 442.507 357.354 C 441.343 357.399 438.518 357.168 438.528 356.28 Z " fill="rgb(44,61,66)"/><path d=" M 430.568 367.117 C 431.347 366.422 432.13 365.743 432.84 365.095 C 435.046 363.083 436.727 359.671 437.693 357.342 C 438.245 356.013 438.528 354.594 438.528 353.155 L 438.528 348.62 L 446.485 348.62 L 446.485 356.002 L 446.485 356.002 L 446.485 356.003 L 446.485 356.2 L 446.445 356.22 C 446.062 357.873 442.411 362.272 440.336 365.14 C 438.945 367.063 436.303 369.509 433.145 369.93 C 430.153 370.33 428.624 369.386 430.568 367.117 Z " fill="rgb(245,160,165)"/><path d=" M 407.49 348.436 L 407.49 347.298 C 407.041 348.633 404.959 354.379 401.802 357.259 C 399.292 359.548 395.868 362.192 394.997 364.745 C 394.091 367.399 399.762 368.291 402.107 367.876 C 404.832 367.393 408.357 365.847 410.276 363.49 C 411.625 361.832 412.484 359.868 413.447 358.564 C 414.41 357.261 416.631 355.806 417.152 354.297 C 417.438 353.468 417.098 351.653 416.696 350.12 C 416.327 348.713 415.928 347.166 415.447 347.298 C 415.446 347.469 415.447 348.165 415.447 348.165 C 414.869 348.806 413.271 349.441 411.469 349.51 C 410.304 349.555 407.48 349.324 407.49 348.436 Z " fill="rgb(44,61,66)"/><path d=" M 399.53 359.273 C 400.309 358.578 401.092 357.899 401.802 357.251 C 404.008 355.239 405.689 351.827 406.655 349.498 C 407.207 348.169 407.49 346.75 407.49 345.311 L 407.49 340.775 L 415.447 340.775 L 415.447 348.158 L 415.447 348.158 L 415.447 348.159 L 415.447 348.356 L 415.407 348.376 C 415.024 350.029 411.373 354.428 409.298 357.296 C 407.907 359.219 405.264 361.664 402.107 362.086 C 399.115 362.485 397.585 361.542 399.53 359.273 Z " fill="rgb(245,160,165)"/><path d=" M 444.902 232.615 C 451.071 246.089 444.679 293.551 444.679 293.551 C 444.865 295.738 447.365 300.04 448.296 309.663 C 449.397 321.034 446.569 349.584 446.569 349.584 C 446.569 349.584 442.885 351.993 438.528 349.904 C 438.528 349.904 430.944 306.905 429.518 295.599 C 428.274 285.733 425.885 264.039 425.885 264.039 L 419.096 295.546 C 419.096 295.546 420.838 301.073 421.246 305.284 C 421.89 311.934 415.447 342.895 415.447 342.895 C 415.447 342.895 412.702 343.902 407.49 343.134 C 407.49 343.134 405.211 302.048 404.61 294.037 C 403.602 280.584 407.174 238.607 409.642 230.643 L 444.902 232.615 Z " fill="rgb(56,79,86)"/><path d=" M 425.885 264.039 L 423.882 251.525 C 423.882 251.525 415.409 249.77 411.566 246.157 C 411.566 246.157 415.598 251.172 421.586 252.814 L 423.835 262.449 L 419.903 291.623 L 425.885 264.039 Z " fill="rgb(44,61,66)"/><path d=" M 412.838 224.12 C 417.507 208.579 423.464 185.439 421.216 185.439 C 418.967 185.439 415.517 185.232 412.99 187.771 C 408.008 192.776 407.099 202.051 406.053 207.346 C 405.007 212.64 404.259 216.819 402.592 224.675 C 401.326 230.64 399.785 237.837 397.527 242.441 C 397.127 243.257 396.421 243.879 395.58 244.223 C 393.324 245.144 392.277 246.309 390.466 247.648 C 389.048 248.697 387.971 248.833 388.06 249.26 C 388.174 249.809 388.887 250.789 390.436 250.595 C 391.215 250.498 392.271 250.084 393.595 249.529 C 393.595 249.529 392.31 251.883 389.757 254.1 C 386.296 257.105 385.799 259.233 391.553 260.282 C 395.159 260.939 398.426 259.211 402.522 251.724 C 403.702 249.567 405.554 246.16 406.608 243.227 C 409.352 235.591 411.426 228.82 412.838 224.12 Z " fill="rgb(245,160,165)"/><path d=" M 434.02 185.806 L 434.021 185.806 C 441.929 186.35 442.484 190.169 444.463 194.347 C 445.97 197.527 445.987 201.214 444.837 204.54 L 439.325 220.484 C 439.325 220.484 441.906 226.722 444.902 232.615 C 431.071 240.335 413.801 236.277 409.642 230.643 C 409.466 229.448 410.535 220.107 411.193 214.005 C 408.757 207.895 408.114 204.021 409.142 199.982 C 411.05 192.484 418.456 185.18 421.733 185.446 L 434.02 185.806 Z " fill="rgb(0,189,248)"/><path d=" M 426.417 179.251 L 429.486 179.251 C 438.414 179.251 445.651 172.014 445.651 163.086 L 445.651 163.086 C 445.651 154.11 438.375 146.833 429.399 146.833 L 426.505 146.833 C 417.528 146.833 410.252 154.11 410.252 163.086 L 410.252 163.086 C 410.252 172.014 417.489 179.251 426.417 179.251 Z " fill="rgb(44,61,66)"/><path d=" M 454.308 187.771 L 454.308 187.771 C 449.033 187.771 444.757 183.495 444.757 178.22 L 444.757 157.769 L 444.757 157.769 C 450.032 157.769 454.308 162.045 454.308 167.32 L 454.308 187.771 Z " fill="rgb(44,61,66)"/><path d=" M 446.507 154.141 L 444.113 157.989 C 445.174 158.699 446.571 158.413 447.232 157.35 C 447.893 156.288 447.569 154.851 446.507 154.141 Z " fill="rgb(44,61,66)"/><path d=" M 416.066 153.991 C 414.197 155.096 411.886 159.799 412.114 169.656 C 412.307 178.011 415.015 180.075 416.375 180.67 C 417.735 181.264 420.357 180.903 422.907 180.478 L 422.907 185.492 C 422.907 185.492 419.383 189.584 419.605 191.884 C 419.827 194.183 424.693 194.726 427.99 192.48 C 431.287 190.234 433.401 186.815 433.401 186.815 L 433.401 174.695 C 433.401 174.695 435.122 176.993 437.938 175.124 C 440.753 173.254 440.86 168.627 439.223 166.966 C 437.587 165.304 434.059 165.83 433.401 168.126 C 433.401 168.126 429.335 168.274 423.921 165.3 C 418.506 162.325 416.426 157.231 416.066 153.991 Z " fill="rgb(245,160,165)"/><path d=" M 422.377 167.557 C 422.347 168.159 422.793 168.67 423.372 168.697 C 423.952 168.725 424.446 168.259 424.476 167.657 C 424.506 167.055 424.061 166.544 423.481 166.517 C 422.902 166.49 422.408 166.955 422.377 167.557 Z " fill="rgb(44,61,66)"/><path d=" M 421.161 174.639 L 418.721 175.418 C 418.924 176.116 419.634 176.508 420.308 176.293 C 420.982 176.078 421.364 175.338 421.161 174.639 Z " fill="rgb(243,142,146)"/><path d=" M 413.763 164.331 L 415.889 162.858 C 415.501 162.251 414.711 162.089 414.124 162.496 C 413.537 162.903 413.375 163.724 413.763 164.331 Z " fill="rgb(44,61,66)"/><path d=" M 414.253 166.798 C 414.223 167.4 414.668 167.91 415.248 167.937 C 415.828 167.965 416.322 167.499 416.352 166.897 C 416.382 166.295 415.937 165.785 415.358 165.757 C 414.778 165.73 414.284 166.196 414.253 166.798 Z " fill="rgb(44,61,66)"/><path d=" M 419.385 166.196 L 419.218 172.521 L 415.889 171.49 L 419.385 166.196 Z " fill="rgb(243,142,146)"/><path d=" M 422.907 180.478 C 425.594 180.125 431.121 178.537 431.983 176.352 C 431.983 176.352 431.696 177.725 430.044 179.141 C 428.393 180.556 422.907 182.15 422.907 182.15 L 422.907 180.478 Z " fill="rgb(243,142,146)"/><path d=" M 444.902 232.615 C 444.49 231.806 444.087 230.99 443.697 230.184 C 444.087 230.99 444.49 231.806 444.902 232.615 L 444.902 232.615 Z  M 444.847 204.509 C 444.848 204.509 444.848 204.507 444.848 204.507 C 444.848 204.507 444.848 204.508 444.847 204.509 Z " fill="rgb(222,223,222)"/><path d=" M 427.912 236.877 C 423.142 236.877 418.736 235.973 415.35 234.573 C 417.586 234.92 419.759 235.071 421.816 235.071 C 425.065 235.071 428.022 234.693 430.483 234.111 C 435.026 233.035 437.908 228.439 436.708 223.928 C 436.663 223.756 436.615 223.61 436.567 223.493 C 435.863 221.8 434.518 221.624 433.988 221.624 C 433.849 221.624 433.766 221.636 433.766 221.636 C 435.559 220.447 436.803 218.592 437.223 216.483 L 438.902 208.052 C 438.902 208.052 435.784 198.148 436.1 194.755 L 444.037 195.213 C 444.037 195.213 444.436 195.491 445.064 195.928 C 445.927 198.701 445.802 201.727 444.848 204.507 C 444.848 204.507 444.848 204.509 444.847 204.509 C 444.844 204.52 444.84 204.53 444.837 204.54 L 444.837 204.54 L 439.325 220.484 L 439.325 220.484 C 439.325 220.484 441.246 225.126 443.697 230.184 C 444.087 230.99 444.49 231.806 444.902 232.615 C 439.435 235.666 433.43 236.877 427.912 236.877 Z " fill="rgb(0,189,248)"/><path d=" M 441.914 226.39 C 438.987 227.166 430.1 228.223 429.445 221.983 C 429.017 217.901 429.219 211.719 429.482 207.049 C 429.896 199.676 432.526 192.591 437.094 186.789 C 437.318 186.505 437.446 186.35 437.446 186.35 C 437.446 186.35 436.162 185.303 433.401 185.788 C 433.401 185.788 427.398 191.475 425.576 199.755 C 421.603 199.175 416.581 198.745 413.243 198.495 C 416.04 189.315 422.907 185.492 422.907 185.492 C 421.43 184.715 419.385 185.435 419.385 185.435 C 413.865 188.586 410.96 193.913 409.625 198.247 C 406.441 207.065 406.556 239.889 406.611 251.546 L 412.098 242.807 L 447.129 242.807 C 446.679 230.274 441.914 226.39 441.914 226.39 Z " fill="rgb(56,79,86)"/><path d=" M 459.026 217.864 C 459.026 217.864 455.29 209.889 450.104 198.069 C 446.355 189.526 445.516 187.601 439.555 186.677 L 437.446 186.35 C 434.621 195.636 436.567 199.842 440.291 206.201 L 447.646 220.457 C 450.572 219.876 459.089 218.748 459.026 217.864 Z " fill="rgb(245,160,165)"/><path d=" M 447.646 220.457 C 449.832 224.85 451.704 227.567 454.352 228.278 C 457 228.988 478.896 228.736 478.896 228.736 L 478.896 220.457 L 458.063 217.293 L 447.646 220.457 Z " fill="rgb(245,160,165)"/><path d=" M 491.42 311.366 L 456.982 311.366 L 456.982 378.456 C 456.82 381.119 458.481 383.811 462.001 385.843 C 468.731 389.729 479.643 389.729 486.373 385.843 C 489.742 383.898 491.423 381.349 491.42 378.8 L 491.42 378.8 L 491.42 311.366 Z " fill="rgb(0,189,248)"/><path d=" M 487.797 305.275 L 487.812 305.275 C 484.003 302.784 486.373 296.725 486.373 296.725 L 462.001 296.725 C 462.001 296.725 464.305 302.746 460.561 305.275 L 460.576 305.275 C 455.325 309.178 455.79 314.815 462.001 318.401 C 468.731 322.287 479.643 322.287 486.373 318.401 C 492.583 314.815 493.049 309.178 487.797 305.275 Z " fill="rgb(0,179,169)"/><path d=" M 474.187 321.315 C 469.776 321.315 465.366 320.344 462.001 318.401 C 458.64 316.461 456.962 313.921 456.961 311.379 C 456.96 309.223 458.166 307.066 460.576 305.275 L 460.576 305.275 L 460.576 305.275 L 460.561 305.275 C 462.24 304.141 462.703 302.306 462.702 300.626 C 462.702 300.309 462.686 299.997 462.658 299.697 C 465.931 301.403 470.059 302.256 474.187 302.256 C 478.305 302.256 482.424 301.407 485.693 299.708 C 485.662 300.02 485.644 300.345 485.644 300.674 C 485.645 302.349 486.116 304.165 487.812 305.275 L 487.797 305.275 L 487.797 305.275 C 490.207 307.066 491.413 309.223 491.412 311.379 C 491.411 313.921 489.733 316.461 486.373 318.401 C 483.008 320.344 478.597 321.315 474.187 321.315 Z " fill="rgb(0,189,248)"/><path d=" M 486.373 296.725 C 486.373 296.725 486.373 296.725 486.373 296.725 L 486.373 296.725 C 486.373 296.725 486.373 296.725 486.373 296.725 Z " fill="rgb(0,179,166)"/><path d=" M 485.693 299.708 C 485.856 298.051 486.37 296.732 486.373 296.725 C 486.37 296.732 485.862 298.051 485.699 299.705 C 485.697 299.706 485.695 299.707 485.693 299.708 Z  M 462.658 299.697 C 462.656 299.696 462.654 299.695 462.653 299.694 C 462.498 298.049 462.007 296.741 462.001 296.725 C 462.001 296.725 462.001 296.725 462.001 296.725 C 462.007 296.741 462.504 298.049 462.658 299.697 Z " fill="rgb(227,227,226)"/><path d=" M 474.187 302.256 C 470.059 302.256 465.931 301.403 462.658 299.697 C 462.504 298.049 462.007 296.741 462.001 296.725 C 465.366 298.668 469.776 299.639 474.187 299.639 C 478.597 299.639 483.008 298.668 486.373 296.725 C 486.373 296.725 486.373 296.725 486.373 296.725 C 486.37 296.732 485.856 298.051 485.693 299.708 C 482.424 301.407 478.305 302.256 474.187 302.256 Z " fill="rgb(7,160,206)"/><path d=" M 491.42 284.999 L 489.384 284.999 C 488.603 284.157 487.603 283.364 486.373 282.654 C 479.643 278.768 468.731 278.768 462 282.654 C 460.77 283.364 459.77 284.156 458.989 284.999 L 456.953 284.999 L 456.953 289.689 C 456.953 292.236 458.635 294.782 462.001 296.725 C 468.731 300.611 479.643 300.611 486.373 296.725 C 489.738 294.782 491.421 292.236 491.42 289.689 L 491.42 284.999 Z " fill="rgb(0,189,248)"/><path d=" M 462.001 292.034 C 468.731 295.92 479.643 295.92 486.373 292.034 C 493.103 288.149 493.103 281.849 486.373 277.963 C 479.643 274.077 468.731 274.077 462 277.963 C 455.27 281.849 455.27 288.149 462.001 292.034 Z " fill="rgb(0,179,169)"/><path d=" M 474.187 294.949 C 469.776 294.949 465.366 293.977 462.001 292.034 C 458.636 290.092 456.953 287.545 456.953 284.999 C 456.953 282.452 458.635 279.906 462 277.963 C 465.366 276.02 469.776 275.049 474.187 275.049 C 478.597 275.049 483.008 276.02 486.373 277.963 C 489.738 279.906 491.42 282.452 491.42 284.999 C 491.42 287.545 489.738 290.092 486.373 292.034 C 483.008 293.977 478.597 294.949 474.187 294.949 Z " fill="rgb(7,160,206)"/><path d=" M 474.196 381.437 C 472.341 381.437 470.837 379.933 470.837 378.078 L 470.837 330.153 C 470.837 328.298 472.341 326.794 474.196 326.794 C 476.051 326.794 477.555 328.298 477.555 330.153 L 477.555 378.078 C 477.555 379.933 476.051 381.437 474.196 381.437 Z " fill="rgb(7,160,206)"/><path d=" M 484.675 379.602 C 483.558 379.602 482.761 378.821 482.761 377.564 L 482.761 328.739 C 482.761 327.133 484.063 325.356 485.67 324.772 C 486.019 324.644 486.354 324.584 486.665 324.584 C 487.781 324.584 488.579 325.365 488.579 326.622 L 488.579 375.446 C 488.579 377.053 487.276 378.829 485.67 379.414 C 485.32 379.541 484.985 379.602 484.675 379.602 Z " fill="rgb(7,160,206)"/><path d=" M 463.717 379.602 C 463.406 379.602 463.071 379.541 462.722 379.414 C 461.115 378.829 459.813 377.053 459.813 375.446 L 459.813 326.622 C 459.813 325.365 460.61 324.584 461.727 324.584 C 462.037 324.584 462.372 324.644 462.722 324.772 C 464.328 325.356 465.631 327.133 465.631 328.739 L 465.631 377.564 C 465.631 378.821 464.833 379.602 463.717 379.602 Z " fill="rgb(7,160,206)"/><path d=" M 478.896 164.323 L 471.859 160.261 L 467.424 181.152 C 467.424 181.152 471.86 188.404 471.86 193.094 L 471.86 282.213 L 476.514 287.647 L 478.896 286.275 L 478.896 197.156 C 478.896 192.466 483.331 190.336 483.331 190.336 L 478.896 164.323 Z " fill="rgb(217,218,216)"/><path d=" M 476.514 165.695 L 469.477 161.633 L 465.042 182.524 C 465.042 182.524 469.478 189.776 469.478 194.466 L 469.478 283.585 L 476.514 287.647 L 476.514 198.528 C 476.514 193.838 480.949 191.708 480.949 191.708 L 476.514 165.695 Z " fill="rgb(229,229,228)"/><path d=" M 469.477 161.633 L 471.859 160.261 L 478.896 164.323 L 476.514 165.695 L 469.477 161.633 Z " fill="rgb(246,246,245)"/><path d=" M 478.896 164.323 L 476.514 165.695 L 480.949 191.708 L 483.331 190.336 L 478.896 164.323 Z " fill="rgb(239,238,237)"/><path d=" M 478.896 213.892 C 479.256 212.319 481.742 211.437 481.496 214.061 C 481.249 216.686 482.507 218.513 482.862 219.735 C 483.608 222.3 483.438 227.155 482.429 228.109 C 481.42 229.063 480.126 230.173 478.202 230.025 C 476.277 229.878 474.926 229.424 472.933 227.877 C 471.312 226.619 469.577 219.376 473.339 220.402 C 478.931 221.928 478.896 217.906 478.896 217.906 L 478.896 213.892 Z " fill="rgb(245,160,165)"/><path d=" M 295.052 237.633 C 298.985 238.423 301.31 241.31 306.044 248.67 C 310.777 256.03 318.128 268.604 318.128 268.604 L 336.508 275.639 L 335.722 283.906 C 335.722 283.906 315.669 280.348 312.925 278.309 C 310.182 276.27 299.558 260.891 299.558 260.891 L 295.052 237.633 Z " fill="rgb(245,160,165)"/><path d=" M 291.763 236.12 C 295.845 236.843 299.88 237.835 302.388 241.72 C 304.895 245.604 314.044 260.467 314.044 260.467 C 314.044 260.467 310.706 268.287 304.633 269.471 L 295.889 256.878 L 291.763 236.12 Z " fill="rgb(223,224,223)"/><path d=" M 276.801 236.455 C 275.4 236.793 273.987 236.88 272.754 237.128 C 266.682 238.348 265.558 241.504 265.415 248.836 C 265.175 261.107 265.382 289.507 265.382 289.507 C 270.789 293.445 290.774 295.851 302.153 287.541 C 302.153 287.541 301.574 254.869 301.574 249.081 C 301.574 243.293 298.358 236.34 289.478 235.823 L 276.801 236.455 Z " fill="rgb(239,238,237)"/><path d=" M 263.977 403.059 L 271.828 403.059 L 271.828 389.62 L 263.977 389.62 L 263.977 403.059 Z " fill="rgb(245,160,165)"/><path d=" M 296.088 392.882 L 303.935 393.152 L 304.328 378.929 L 296.088 378.659 L 296.088 392.882 Z " fill="rgb(245,160,165)"/><path d=" M 303.286 287.541 L 303.286 287.541 L 301.881 255.647 L 277.177 259.629 C 277.177 259.629 277.399 265.476 276.303 274.732 C 275.836 278.671 272.058 284.038 265.359 285.813 C 265.359 285.813 264.949 290.588 265.299 301.301 C 265.421 305.019 263.674 346.151 263.674 346.151 C 263.492 348.308 261.415 352.143 261.254 359.914 C 261.019 371.182 263.642 396.34 263.642 396.34 C 263.642 396.34 267.453 398.567 272.383 396.512 C 272.383 396.512 277.66 360.354 279.067 349.2 C 280.294 339.466 285.42 312.094 285.42 312.094 L 291.42 344.998 C 291.42 344.998 289.973 350.804 290.447 357.475 C 290.814 362.635 295.592 388.476 295.592 388.476 C 295.592 388.476 299.287 390.984 304.656 389.17 C 304.656 389.17 305.125 348.606 305.216 343.873 C 305.319 338.476 303.286 287.544 303.286 287.541 Z " fill="rgb(56,79,86)"/><path d=" M 301.881 255.647 C 301.622 249.335 300.741 243.51 295.299 238.051 C 293.824 236.571 291.797 235.771 289.708 235.771 L 288.545 235.771 C 288.545 235.771 294.001 240.105 296.137 246.386 C 297.989 251.831 297.872 258.625 297.872 258.625 L 301.881 255.647 Z " fill="rgb(56,79,86)"/><path d=" M 271.828 399.184 L 271.828 398.063 C 272.249 398.053 272.51 398.472 272.671 399.482 C 272.786 400.205 272.892 400.752 273.13 401.703 C 273.494 403.157 273.821 404.046 274.501 405.721 C 275.611 408.456 276.543 409.475 279.085 412.672 C 279.688 413.43 281.048 414.635 281.523 415.48 C 281.997 416.325 282.164 418.675 281.358 419.213 C 278.394 421.189 273.893 421.244 270.709 420.31 C 268.259 419.593 266.492 417.636 266.085 415.116 C 265.969 414.393 266.012 413.652 265.929 412.924 C 265.739 411.263 264.905 409.745 263.963 408.364 C 263.416 407.562 262.821 406.78 262.455 405.882 C 261.795 404.268 262.324 402.453 262.745 400.845 C 263.109 399.457 263.503 397.931 263.977 398.061 C 263.979 398.23 263.977 398.917 263.977 398.917 C 264.547 399.549 266.124 400.176 267.903 400.244 C 269.051 400.288 271.838 400.06 271.828 399.184 Z " fill="rgb(44,61,66)"/><path d=" M 304.018 390.731 C 304.426 390.745 304.758 391.32 305.657 392.293 C 306.744 393.47 308.521 394.738 310.275 395.616 C 313.215 397.088 318.93 399.352 321.517 400.517 C 323.133 401.245 323.057 403.197 321.387 404.308 C 319.716 405.418 315.684 406.219 310.841 405.136 C 308.203 404.546 304.769 402.109 302.595 402.241 C 300.422 402.372 296.355 402.341 294.75 401.235 C 293.146 400.129 293.788 397.767 294.241 395.738 C 294.736 393.523 295.355 390.069 296.088 390.22 L 296.088 390.984 C 297.032 392.413 301.903 392.995 303.976 391.943 L 304.018 390.731 Z " fill="rgb(44,61,66)"/><path d=" M 285.42 312.094 C 285.42 312.094 291.695 310.326 296.352 305.826 C 296.352 305.826 294.243 309.775 287.97 313.451 L 291.005 342.72 L 285.42 312.094 Z " fill="rgb(44,61,66)"/><path d=" M 279.919 210.356 C 279.919 216.315 284.75 221.146 290.708 221.146 C 296.667 221.146 301.498 216.315 301.498 210.356 C 301.498 204.398 296.667 199.567 290.708 199.567 C 284.75 199.567 279.919 204.398 279.919 210.356 Z " fill="rgb(44,61,66)"/><path d=" M 272.058 218.028 C 272.058 218.028 273.806 226.242 274.507 227.592 C 275.208 228.942 276.657 229.325 276.657 229.325 L 276.535 223.547 L 272.058 218.028 Z " fill="rgb(44,61,66)"/><path d=" M 274.252 206.26 C 274.252 206.26 272.369 205.938 270.901 207.439 C 269.462 208.91 270.265 213.516 272.058 218.028 L 275.351 218.406 L 274.252 206.26 Z " fill="rgb(44,61,66)"/><path d=" M 276.339 218.409 C 275.678 218.803 274.736 217.535 273.922 216.682 C 273.107 215.83 270.449 214.666 269.123 217.46 C 267.771 220.308 270.293 224.071 272.386 224.728 C 275.993 225.86 276.535 223.547 276.535 223.547 L 276.801 236.956 C 281.286 242.706 293.732 242.22 288.546 236.214 L 288.536 232.254 C 288.536 232.254 291.804 232.75 293.398 232.503 C 296.051 232.093 297.72 230 298.524 227.129 C 299.817 222.517 300.308 218.793 299.211 209.723 C 298.009 199.781 286.446 199.678 280.202 203.608 C 273.957 207.538 276.339 218.409 276.339 218.409 Z " fill="rgb(245,160,165)"/><path d=" M 277.171 261.569 C 277.355 253.412 275.489 241.313 272.754 237.128 C 272.754 237.128 274.692 236.172 276.801 236.455 C 276.801 236.455 281.937 244.455 281.718 261.568 L 277.171 261.569 Z " fill="rgb(56,79,86)"/><path d=" M 276.339 219.52 C 276.006 219.526 274.744 217.43 273.922 216.682 C 272.783 215.646 274.252 206.26 274.252 206.26 C 274.252 206.26 272.843 203.607 275.036 201.193 C 276.597 199.476 278.773 197.379 285.854 198.216 C 290.901 198.812 296.395 200.387 300.833 198.207 C 301.498 200.968 300.961 204.049 298.202 206.231 C 298.202 206.231 296.595 207.267 292.37 207.781 C 288.144 208.296 281.563 207.682 280.663 207.559 C 279.438 207.392 279.176 208.579 278.516 211.823 C 277.936 214.671 277.455 219.498 276.339 219.52 Z " fill="rgb(44,61,66)"/><path d=" M 274.258 206.99 L 270.265 204.847 C 270.832 203.703 272.185 203.255 273.288 203.847 C 274.391 204.439 274.825 205.846 274.258 206.99 Z " fill="rgb(44,61,66)"/><path d=" M 288.536 232.254 C 288.536 232.254 282.614 231.061 280.544 229.96 C 279.159 229.224 278.017 227.947 277.682 227.129 C 277.682 227.129 278.07 228.886 279.308 230.469 C 280.822 232.404 288.536 233.829 288.536 233.829 L 288.536 232.254 Z " fill="rgb(243,142,146)"/><path d=" M 288.315 217.679 C 288.315 218.36 287.784 218.91 287.128 218.908 C 286.473 218.907 285.942 218.353 285.942 217.672 C 285.942 216.991 286.473 216.441 287.128 216.442 C 287.784 216.444 288.315 216.998 288.315 217.679 Z " fill="rgb(44,61,66)"/><path d=" M 287.056 213.199 L 284.518 214.6 C 284.144 213.87 284.408 212.965 285.109 212.579 C 285.811 212.192 286.682 212.469 287.056 213.199 Z " fill="rgb(44,61,66)"/><path d=" M 287.999 225.125 L 290.708 226.142 C 290.44 226.918 289.617 227.32 288.868 227.04 C 288.12 226.759 287.731 225.902 287.999 225.125 Z " fill="rgb(243,142,146)"/><path d=" M 298.897 214.186 L 296.582 212.404 C 297.054 211.741 297.955 211.603 298.594 212.095 C 299.233 212.587 299.369 213.524 298.897 214.186 Z " fill="rgb(44,61,66)"/><path d=" M 298.184 217.341 C 298.184 218.022 297.653 218.572 296.997 218.57 C 296.342 218.568 295.811 218.015 295.811 217.334 C 295.811 216.653 296.342 216.103 296.997 216.105 C 297.653 216.106 298.184 216.66 298.184 217.341 Z " fill="rgb(44,61,66)"/><path d=" M 291.826 216.442 L 292.216 223.579 L 295.942 222.308 L 291.826 216.442 Z " fill="rgb(243,142,146)"/><path d=" M 348.45 229.697 C 348.465 227.505 350.288 224.435 349.727 222.799 L 345.667 220.454 L 337.533 240.904 L 329.235 245.622 L 325.135 239.64 L 337.401 221.333 L 333.34 218.987 C 332.826 219.226 332.311 219.491 331.784 219.791 C 322.515 225.06 314.944 238.041 314.872 248.786 C 314.837 254.207 316.718 258.009 319.777 259.777 L 319.776 259.778 L 323.823 262.115 L 324.293 260.887 C 324.392 260.886 324.488 260.895 324.589 260.891 L 324.589 356.043 C 318.894 362.39 314.924 371.308 314.872 379.077 C 314.846 383.106 315.874 386.239 317.656 388.32 L 321.716 390.666 L 325.79 367.87 L 334.088 363.153 L 338.188 369.134 L 329.982 389.787 L 334.043 392.132 C 334.043 392.132 348.379 370.733 348.45 359.988 C 348.471 356.832 347.833 354.235 346.7 352.258 L 347.714 351.406 L 343.685 349.078 L 343.691 349.091 C 342.274 348.231 340.599 347.809 338.734 347.884 L 338.734 252.732 C 344.429 246.384 348.399 237.467 348.45 229.697 Z " fill="rgb(67,96,105)"/><path d=" M 324.589 356.043 L 328.649 358.388 L 328.649 263.236 L 324.589 260.891 L 324.589 356.043 Z " fill="rgb(44,61,66)"/><path d=" M 342.794 350.229 L 342.794 255.077 C 348.489 248.73 352.459 239.812 352.511 232.042 C 352.537 228.013 351.509 224.881 349.727 222.799 L 341.593 243.25 L 333.295 247.967 L 329.195 241.986 L 337.401 221.333 C 336.886 221.571 336.371 221.837 335.845 222.136 C 326.575 227.406 319.004 240.387 318.933 251.131 C 318.881 259.007 322.874 263.467 328.649 263.236 L 328.649 358.388 C 322.954 364.735 318.984 373.653 318.933 381.423 C 318.906 385.452 319.934 388.584 321.716 390.666 L 329.85 370.215 L 338.148 365.498 L 342.248 371.479 L 334.043 392.132 C 334.557 391.894 335.072 391.628 335.599 391.329 C 344.868 386.059 352.439 373.078 352.511 362.334 C 352.563 354.458 348.569 349.998 342.794 350.229 Z " fill="rgb(56,79,86)"/><path d=" M 336.383 366.501 L 338.148 365.498 L 342.248 371.479 L 334.043 392.132 L 329.982 389.787 L 338.188 369.134 L 336.383 366.501 Z " fill="rgb(44,61,66)"/><path d=" M 342.794 272.011 C 342.794 273.54 340.472 275.245 338.767 276.311 C 337.061 277.377 334.915 278.869 335.722 281.959 C 336.529 285.05 339.854 285.836 341.537 285.021 C 343.221 284.206 344.887 282.787 345.309 279.94 C 345.73 277.093 346.69 270.266 342.794 269.471 L 342.794 272.011 Z " fill="rgb(245,160,165)"/><path d=" M 249.619 280.188 C 256.377 249.842 260.607 243.225 270.019 239.718 L 268.742 257.965 C 268.742 257.965 259.918 277.629 258.589 284.582 C 257.421 290.691 256.115 298.372 256.317 303.598 C 256.352 304.524 256.753 305.396 257.395 306.064 C 259.118 307.856 259.612 309.375 260.746 311.372 C 261.634 312.936 262.582 313.508 262.322 313.87 C 261.989 314.334 260.919 314.953 259.556 314.132 C 258.87 313.719 258.056 312.897 257.051 311.831 C 257.051 311.831 257.276 314.557 258.739 317.68 C 260.722 321.913 260.306 324.102 254.508 322.7 C 250.875 321.822 248.543 318.859 247.822 310.186 C 247.614 307.687 247.296 303.745 247.526 300.576 C 248.126 292.323 248.532 285.072 249.619 280.188 Z " fill="rgb(245,160,165)"/><path d=" M 270.844 237.633 C 270.844 237.633 267.152 237.633 264.052 239.718 C 261.688 241.308 257.758 247.715 255.268 255.647 C 252.778 263.579 251.471 267.981 251.471 267.981 C 251.471 267.981 255.548 274.194 264.348 271.739 C 264.348 271.739 269.305 259.337 269.02 260.127 C 269.02 260.127 275.578 247.904 270.844 237.633 Z " fill="rgb(223,224,223)"/></g></g></svg>