<?xml version="1.0"?>
<svg xmlns="http://www.w3.org/2000/svg" height="512px" viewBox="0 0 511.7297 511" width="512px"><g><path d="m121.242188 311.726562c-3.199219-3.203124-7.539063-5.003906-12.070313-5.003906-4.527344 0-8.867187 1.800782-12.070313 5.003906l-25.914062 25.929688c-6.664062 6.667969-6.664062 17.46875 0 24.132812l79.105469 79.105469c6.664062 6.664063 17.464843 6.664063 24.128906 0l25.933594-25.917969c3.203125-3.199218 5.003906-7.539062 5.003906-12.070312 0-4.527344-1.800781-8.867188-5.003906-12.070312zm41.117187 117.101563-79.105469-79.105469 25.914063-25.929687 79.113281 79.121093zm0 0" data-original="#000000" class="active-path" data-old_color="#000000" fill="#00BDF8"/><path d="m337.554688 245.882812.785156-.332031c17.71875-6.777343 31.777344-20.679687 38.757812-38.316406.136719-.257813.257813-.519531.359375-.792969 5.148438-13.480468 15.792969-24.132812 29.269531-29.285156 17.714844-6.773438 31.777344-20.664062 38.757813-38.300781.136719-.273438.257813-.542969.367187-.851563 5.148438-13.421875 15.722657-24.050781 29.117188-29.269531l18.585938-7.109375c6.785156-2.679688 11.492187-8.945312 12.175781-16.210938l5.921875-64c.511718-5.695312-1.535156-11.324218-5.582032-15.363281-4.066406-4.03125-9.691406-6.0859372-15.402343-5.621093l-63.835938 5.914062c-7.40625.601562-13.792969 5.441406-16.375 12.40625l-6.691406 17.628906c-5.097656 13.398438-15.597656 24.035156-28.929687 29.304688l-1.5.597656c-17.742188 7.136719-31.710938 21.339844-38.546876 39.203125-5.136718 13.484375-15.785156 24.136719-29.269531 29.277344-17.980469 6.875-32.183593 21.085937-39.054687 39.074219l-.351563.929687c-5.019531 12.976563-15.109375 23.347656-27.945312 28.722656l-3.175781 1.332031c-12.515626-9.414062-25.609376-18.03125-39.199219-25.804687-16.011719-9.105469-35.636719-9.105469-51.644531 0-57.355469 32.488281-104.816407 79.9375-137.320313 137.285156-9.105469 16.007813-9.105469 35.632813 0 51.640625 32.503906 57.351563 79.960937 104.808594 137.3125 137.3125 16.011719 9.101563 35.628906 9.101563 51.640625 0 57.347656-32.5 104.796875-79.960937 137.285156-137.3125 9.105469-16.007812 9.105469-35.632812 0-51.640625-7.792968-13.605469-16.433594-26.707031-25.863281-39.230469l1.355469-3.285156c5.425781-12.886718 15.910156-22.976562 28.996094-27.902344zm-19.257813 113.59375c-31.003906 54.695313-76.273437 99.949219-130.980469 130.9375-10.761718 6.117188-23.949218 6.117188-34.710937 0-54.695313-30.988281-99.949219-76.242187-130.9375-130.9375-6.117188-10.761718-6.117188-23.949218 0-34.710937 30.992187-54.691406 76.246093-99.945313 130.9375-130.9375 10.761719-6.121094 23.949219-6.121094 34.710937 0 54.710938 30.980469 99.980469 76.238281 130.980469 130.9375 6.117187 10.761719 6.117187 23.949219 0 34.710937zm-23.042969-97.339843c-13.742187-16.441407-28.929687-31.625-45.378906-45.363281 14.714844-7.675782 26.136719-20.4375 32.144531-35.90625l.367188-.972657c5.140625-13.445312 15.761719-24.0625 29.210937-29.195312 18.152344-6.917969 32.453125-21.316407 39.253906-39.515625 5.175782-13.25 15.601563-23.769532 28.808594-29.066406l1.476563-.585938c17.785156-7.03125 31.796875-21.222656 38.59375-39.101562l6.699219-17.679688c.269531-.792969.992187-1.34375 1.828124-1.390625l53.339844-4.949219-158.105468 158.113282c-2.21875 2.140624-3.109376 5.316406-2.328126 8.296874.78125 2.984376 3.113282 5.316407 6.097657 6.097657 2.980469.777343 6.15625-.109375 8.296875-2.328125l158.113281-158.105469-4.957031 53.484375c-.097656.808594-.628906 1.492188-1.382813 1.792969l-18.507812 7.074219c-17.640625 6.863281-31.632813 20.757812-38.621094 38.347656-.144531.277344-.269531.5625-.375.855468-5.136719 13.445313-15.761719 24.0625-29.210937 29.191407-17.726563 6.785156-31.796876 20.683593-38.800782 38.324219-.144531.277343-.273437.5625-.382812.851562-5.195313 13.53125-15.921875 24.195312-29.484375 29.304688l-.851563.351562c-15.476562 5.9375-28.230468 17.351562-35.84375 32.074219zm0 0" data-original="#000000" class="active-path" data-old_color="#000000" fill="#00BDF8"/><path d="m255.148438 290.496094c-3.332032 3.332031-3.332032 8.730468 0 12.0625 11.527343 10.140625 17.992187 24.847656 17.664062 40.195312-1.78125 29.386719-31.785156 53.1875-32.085938 53.425782-3.726562 2.890624-4.40625 8.253906-1.519531 11.980468 2.890625 3.726563 8.253907 4.40625 11.984375 1.519532 1.464844-1.152344 36.300782-28.636719 38.621094-65.707032.765625-20.277344-7.527344-39.84375-22.632812-53.394531-3.304688-3.332031-8.679688-3.367187-12.03125-.082031zm0 0" data-original="#000000" class="active-path" data-old_color="#000000" fill="#00BDF8"/></g> </svg>
