<?xml version="1.0" encoding="UTF-8" standalone="no"?>
<!-- Generator: Gravit.io -->
<svg xmlns="http://www.w3.org/2000/svg" xmlns:xlink="http://www.w3.org/1999/xlink" style="isolation:isolate" viewBox="18.918 153.291 78.206 78.206" width="78.206pt" height="78.206pt"><g><path d=" M 44.689 172.879 L 53.291 181.292 L 53.176 170.889 L 48.496 166.311 C 47.157 166.855 45.864 167.487 44.637 168.228 L 44.689 172.879 Z  M 53.649 215.655 L 53.516 203.642 L 45.103 212.244 L 45.138 215.418 C 47.09 216.521 49.172 217.401 51.361 217.994 L 53.649 215.655 Z  M 62.907 215.552 L 65.469 218.059 C 67.14 217.621 68.743 217.03 70.278 216.308 L 70.217 210.798 L 62.773 203.518 L 62.907 215.552 L 62.907 215.552 Z  M 46.897 197.146 L 34.885 197.279 L 32.531 199.686 C 33.194 201.839 34.12 203.879 35.266 205.784 L 38.506 205.748 L 46.897 197.146 L 46.897 197.146 Z  M 62.411 170.765 L 62.526 181.168 L 69.806 173.725 L 69.728 166.694 C 68.931 166.35 68.134 166.028 67.293 165.751 L 62.411 170.765 Z  M 69.145 187.642 L 79.548 187.527 L 84.365 182.602 C 84.069 181.745 83.729 180.933 83.346 180.122 L 76.403 180.199 L 69.145 187.642 Z  M 69.247 196.899 L 76.69 204.179 L 82.884 204.111 C 83.358 203.179 83.789 202.205 84.174 201.209 L 79.65 196.784 L 69.247 196.899 L 69.247 196.899 Z  M 34.783 188.022 L 46.795 187.889 L 38.193 179.475 L 34.159 179.52 C 33.254 181.36 32.548 183.307 32.064 185.341 L 34.783 188.022 L 34.783 188.022 Z " fill="rgb(0,189,248)"/><path d=" M 20.523 202.2 L 23.665 205.295 L 33.866 194.866 L 52.734 194.657 L 39.524 208.162 L 24.955 208.323 L 25.004 212.731 L 35.165 212.619 L 29.127 218.792 L 32.27 221.887 L 38.329 215.692 L 38.442 225.875 L 42.85 225.826 L 42.689 211.235 L 55.876 197.752 L 56.085 216.62 L 45.906 227.049 L 49.048 230.122 L 56.154 222.857 L 56.25 231.497 L 60.658 231.448 L 60.562 222.808 L 67.827 229.914 L 70.922 226.772 L 60.493 216.571 L 60.284 197.704 L 72.63 209.779 L 72.791 224.348 L 77.2 224.299 L 77.087 214.139 L 84.419 221.31 L 87.514 218.145 L 80.182 210.974 L 90.343 210.862 L 90.294 206.453 L 75.725 206.615 L 63.379 194.539 L 80.638 194.348 L 91.067 204.549 L 94.14 201.385 L 86.875 194.279 L 97.124 194.166 L 97.075 189.757 L 86.826 189.871 L 93.932 182.606 L 90.79 179.532 L 80.589 189.94 L 63.331 190.131 L 75.406 177.785 L 89.975 177.624 L 89.926 173.215 L 79.766 173.328 L 86.937 165.996 L 83.773 162.923 L 76.601 170.255 L 76.489 160.094 L 72.081 160.143 L 72.242 174.712 L 60.166 187.058 L 59.975 169.778 L 70.176 159.37 L 67.012 156.297 L 59.906 163.562 L 59.792 153.291 L 55.384 153.34 L 55.498 163.611 L 48.233 156.505 L 45.16 159.647 L 55.567 169.826 L 55.758 187.107 L 42.275 173.897 L 42.114 159.328 L 37.706 159.377 L 37.818 169.538 L 31.623 163.5 L 28.55 166.642 L 34.723 172.702 L 24.562 172.815 L 24.611 177.223 L 39.18 177.062 L 52.685 190.249 L 33.818 190.458 L 23.388 180.279 L 20.315 183.421 L 27.58 190.527 L 18.918 190.623 L 18.967 195.031 L 27.629 194.935 L 20.523 202.2 Z " fill="rgb(0,189,248)"/></g></svg>