<?xml version="1.0" encoding="UTF-8" standalone="no"?>
<!-- Generator: Gravit.io -->
<svg xmlns="http://www.w3.org/2000/svg" xmlns:xlink="http://www.w3.org/1999/xlink" style="isolation:isolate" viewBox="62.52 1056.427 3966.284 550.979" width="3966.284pt" height="550.979pt"><g><g><path d=" M 201.985 1207.265 L 248.536 1252.797 L 247.913 1196.498 L 222.587 1171.727 C 215.342 1174.67 208.342 1178.088 201.706 1182.098 L 201.985 1207.265 Z  M 250.475 1438.754 L 249.755 1373.747 L 204.224 1420.298 L 204.414 1437.474 C 214.978 1443.441 226.244 1448.208 238.09 1451.417 L 250.475 1438.754 Z  M 300.572 1438.199 L 314.441 1451.764 C 323.481 1449.398 332.154 1446.2 340.461 1442.291 L 340.131 1412.471 L 299.851 1373.073 L 300.572 1438.199 L 300.572 1438.199 Z  M 213.936 1338.594 L 148.929 1339.314 L 136.19 1352.339 C 139.778 1363.99 144.792 1375.028 150.99 1385.338 L 168.524 1385.144 L 213.936 1338.594 L 213.936 1338.594 Z  M 297.889 1195.825 L 298.512 1252.125 L 337.91 1211.845 L 337.489 1173.795 C 333.174 1171.934 328.86 1170.192 324.31 1168.692 L 297.889 1195.825 Z  M 334.33 1287.158 L 390.63 1286.535 L 416.698 1259.883 C 415.096 1255.248 413.258 1250.854 411.182 1246.464 L 373.609 1246.879 L 334.33 1287.158 Z  M 334.885 1337.255 L 375.165 1376.653 L 408.682 1376.282 C 411.251 1371.243 413.578 1365.969 415.666 1360.577 L 391.184 1336.632 L 334.885 1337.255 L 334.885 1337.255 Z  M 148.375 1289.217 L 213.382 1288.497 L 166.83 1242.965 L 145.002 1243.207 C 140.102 1253.163 136.282 1263.703 133.66 1274.707 L 148.375 1289.217 L 148.375 1289.217 Z " fill="rgb(0,189,248)"/><path d=" M 71.206 1365.942 L 88.212 1382.693 L 143.417 1326.253 L 245.519 1325.122 L 174.036 1398.205 L 95.193 1399.078 L 95.457 1422.934 L 150.445 1422.325 L 117.77 1455.731 L 134.776 1472.482 L 167.569 1438.956 L 168.179 1494.063 L 192.034 1493.799 L 191.16 1414.836 L 262.525 1341.874 L 263.655 1443.976 L 208.57 1500.415 L 225.575 1517.047 L 264.029 1477.732 L 264.547 1524.489 L 288.402 1524.225 L 287.885 1477.468 L 327.2 1515.922 L 343.951 1498.916 L 287.511 1443.712 L 286.381 1341.61 L 353.192 1406.958 L 354.065 1485.802 L 377.921 1485.537 L 377.312 1430.55 L 416.989 1469.358 L 433.739 1452.233 L 394.062 1413.425 L 449.05 1412.816 L 448.786 1388.96 L 369.943 1389.833 L 303.131 1324.485 L 396.526 1323.451 L 452.966 1378.655 L 469.597 1361.531 L 430.282 1323.077 L 485.746 1322.463 L 485.482 1298.607 L 430.018 1299.221 L 468.472 1259.906 L 451.467 1243.274 L 396.262 1299.595 L 302.867 1300.629 L 368.215 1233.817 L 447.058 1232.944 L 446.794 1209.088 L 391.807 1209.697 L 430.615 1170.02 L 413.491 1153.389 L 374.683 1193.066 L 374.074 1138.079 L 350.219 1138.343 L 351.092 1217.186 L 285.743 1283.998 L 284.708 1190.484 L 339.913 1134.163 L 322.79 1117.532 L 284.335 1156.847 L 283.72 1101.263 L 259.864 1101.527 L 260.479 1157.111 L 221.164 1118.657 L 204.532 1135.661 L 260.852 1190.748 L 261.887 1284.262 L 188.923 1212.778 L 188.051 1133.935 L 164.195 1134.199 L 164.804 1189.187 L 131.278 1156.514 L 114.646 1173.518 L 148.053 1206.312 L 93.066 1206.92 L 93.33 1230.776 L 172.173 1229.903 L 245.255 1301.267 L 143.153 1302.397 L 86.713 1247.312 L 70.081 1264.316 L 109.397 1302.771 L 62.52 1303.29 L 62.784 1327.145 L 109.661 1326.626 L 71.206 1365.942 Z " fill="rgb(0,189,248)"/></g><text transform="matrix(5.412,0,0,5.412,520.341,1465.638)" style="font-family:'Raleway';font-weight:500;font-size:70px;font-style:normal;fill:#000000;stroke:none;">Multi-Chill Services</text></g></svg>