<?xml version="1.0" encoding="UTF-8" standalone="no"?>
<!-- Generator: Gravit.io -->
<svg xmlns="http://www.w3.org/2000/svg" xmlns:xlink="http://www.w3.org/1999/xlink" style="isolation:isolate" viewBox="281.481 1053.253 1421.29 263.197" width="1421.29pt" height="263.197pt"><g><g><path d=" M 348.102 1134.403 L 370.339 1156.153 L 370.041 1129.259 L 357.943 1117.426 C 354.483 1118.832 351.139 1120.465 347.969 1122.38 L 348.102 1134.403 Z  M 371.265 1244.982 L 370.922 1213.929 L 349.171 1236.166 L 349.262 1244.371 C 354.309 1247.222 359.69 1249.498 365.349 1251.031 L 371.265 1244.982 Z  M 395.196 1244.717 L 401.821 1251.197 C 406.14 1250.067 410.283 1248.539 414.251 1246.672 L 414.093 1232.427 L 394.852 1213.607 L 395.196 1244.717 L 395.196 1244.717 Z  M 353.811 1197.137 L 322.758 1197.481 L 316.672 1203.703 C 318.387 1209.268 320.781 1214.541 323.742 1219.466 L 332.118 1219.374 L 353.811 1197.137 L 353.811 1197.137 Z  M 393.914 1128.938 L 394.212 1155.832 L 413.032 1136.59 L 412.831 1118.414 C 410.77 1117.525 408.709 1116.693 406.536 1115.976 L 393.914 1128.938 Z  M 411.322 1172.567 L 438.216 1172.269 L 450.668 1159.537 C 449.903 1157.323 449.025 1155.225 448.033 1153.127 L 430.085 1153.326 L 411.322 1172.567 Z  M 411.587 1196.498 L 430.828 1215.318 L 446.839 1215.14 C 448.066 1212.733 449.178 1210.214 450.175 1207.638 L 438.481 1196.2 L 411.587 1196.498 L 411.587 1196.498 Z  M 322.493 1173.55 L 353.546 1173.206 L 331.309 1151.456 L 320.882 1151.572 C 318.541 1156.327 316.717 1161.362 315.464 1166.619 L 322.493 1173.55 L 322.493 1173.55 Z " fill="rgb(0,189,248)"/><path d=" M 285.63 1210.201 L 293.754 1218.203 L 320.125 1191.242 L 368.898 1190.702 L 334.751 1225.613 L 297.089 1226.03 L 297.215 1237.425 L 323.482 1237.135 L 307.874 1253.092 L 315.997 1261.094 L 331.662 1245.079 L 331.953 1271.403 L 343.349 1271.277 L 342.931 1233.557 L 377.021 1198.704 L 377.561 1247.477 L 351.248 1274.437 L 359.371 1282.382 L 377.74 1263.602 L 377.987 1285.937 L 389.383 1285.811 L 389.135 1263.476 L 407.916 1281.845 L 415.918 1273.721 L 388.957 1247.351 L 388.417 1198.578 L 420.332 1229.794 L 420.749 1267.457 L 432.145 1267.33 L 431.854 1241.063 L 450.807 1259.602 L 458.809 1251.421 L 439.855 1232.883 L 466.122 1232.592 L 465.996 1221.197 L 428.334 1221.614 L 396.418 1190.397 L 441.032 1189.903 L 467.993 1216.274 L 475.938 1208.094 L 457.157 1189.725 L 483.652 1189.431 L 483.526 1178.036 L 457.031 1178.329 L 475.4 1159.549 L 467.277 1151.604 L 440.906 1178.508 L 396.292 1179.001 L 427.509 1147.086 L 465.171 1146.669 L 465.045 1135.274 L 438.778 1135.564 L 457.316 1116.611 L 449.136 1108.667 L 430.598 1127.62 L 430.307 1101.353 L 418.912 1101.479 L 419.329 1139.142 L 388.112 1171.057 L 387.618 1126.386 L 413.989 1099.482 L 405.809 1091.538 L 387.44 1110.318 L 387.146 1083.767 L 375.75 1083.893 L 376.044 1110.445 L 357.264 1092.075 L 349.319 1100.198 L 376.222 1126.512 L 376.717 1171.183 L 341.863 1137.036 L 341.446 1099.374 L 330.05 1099.5 L 330.341 1125.767 L 314.326 1110.159 L 306.381 1118.282 L 322.34 1133.947 L 296.073 1134.238 L 296.199 1145.634 L 333.861 1145.217 L 368.772 1179.306 L 319.998 1179.846 L 293.038 1153.532 L 285.093 1161.655 L 303.874 1180.025 L 281.481 1180.272 L 281.607 1191.668 L 304 1191.42 L 285.63 1210.201 Z " fill="rgb(0,189,248)"/></g><text transform="matrix(2.585,0,0,2.585,495.361,1230.479)" style="font-family:'Raleway';font-weight:500;font-size:50px;font-style:normal;fill:#000000;stroke:none;">Multi-Chill Services</text></g></svg>