<?xml version="1.0"?>
<svg xmlns="http://www.w3.org/2000/svg" viewBox="0 0 64 64" width="512px" height="512px"><g><g id="Wrench-3" data-name="Wrench"><path d="M55.989,39.708A4.106,4.106,0,0,0,51.83,36H44V22.714a2.935,2.935,0,0,1,1.043-2.266A10.994,10.994,0,0,0,42.4,1.923,1,1,0,0,0,41,2.84V12.5l-3,2.25L35,12.5V2.84a1,1,0,0,0-1.4-.917,10.994,10.994,0,0,0-2.644,18.525A2.935,2.935,0,0,1,32,22.714V27H28.828a2.978,2.978,0,0,0-2.121.879l-5.828,5.828a1.009,1.009,0,0,1-.707.293H18V32a1,1,0,0,0-1-1H3a1,1,0,0,0-1,1V61a1,1,0,0,0,1,1H17a1,1,0,0,0,1-1V59h2.333a1.007,1.007,0,0,1,.6.2l2.932,2.2a3.013,3.013,0,0,0,1.8.6H46a4,4,0,0,0,3.323-6.224,4,4,0,0,0,2-6,4,4,0,0,0,2-6,4.012,4.012,0,0,0,2.666-4.068ZM16,60H4V33H16ZM29,12a8.992,8.992,0,0,1,4-7.479V13a1,1,0,0,0,.4.8l4,3a1,1,0,0,0,1.2,0l4-3A1,1,0,0,0,43,13V4.521a8.994,8.994,0,0,1,.762,14.391A4.932,4.932,0,0,0,42,22.714V36H39V24a1,1,0,0,0-2,0V36H35a1,1,0,0,1-1-1V22.714a4.932,4.932,0,0,0-1.762-3.8A8.981,8.981,0,0,1,29,12ZM53.413,41.413A1.986,1.986,0,0,1,52,42H40a1,1,0,0,0,0,2H50a2,2,0,0,1,0,4H40a1,1,0,0,0,0,2h8a2,2,0,0,1,0,4H40a1,1,0,0,0,0,2h6a2,2,0,0,1,0,4H25.667a1.007,1.007,0,0,1-.6-.2l-2.932-2.2a3.013,3.013,0,0,0-1.8-.6H18V36h2.172a2.978,2.978,0,0,0,2.121-.879l5.828-5.828A1.009,1.009,0,0,1,28.828,29H32v6a3,3,0,0,0,3,3H51.83A2.13,2.13,0,0,1,54,39.852,2.009,2.009,0,0,1,53.413,41.413Z" data-original="#000000" class="active-path" data-old_color="#000000" fill="#00BDF8"/><path d="M10,58a3,3,0,1,1,3-3A3,3,0,0,1,10,58Zm0-4a1,1,0,1,0,1,1A1,1,0,0,0,10,54Z" data-original="#000000" class="active-path" data-old_color="#000000" fill="#00BDF8"/></g></g> </svg>
