<?xml version="1.0"?>
<svg xmlns="http://www.w3.org/2000/svg" id="Layer_1" enable-background="new 0 0 256 256" height="512px" viewBox="0 0 256 256" width="512px" class="hovered-paths"><g><path d="m108.674 40.229h37.762v174.651h-37.762z" fill="#f4efed" transform="matrix(.707 -.707 .707 .707 -52.835 127.555)" data-original="#F4EFED" class="hovered-path active-path" data-old_color="#f4efed" style="fill:#FEFDFC"/><path d="m145.734 153.801-44.425-44.425c-2.228-2.228-2.228-5.839 0-8.067 2.228-2.228 5.839-2.228 8.067 0l44.425 44.425c2.228 2.228 2.228 5.839 0 8.067-2.228 2.228-5.839 2.228-8.067 0z" fill="#d6d1cf" data-original="#D6D1CF" class="" data-old_color="#d6d1cf" style="fill:#F6F2F0"/><path d="m112.985 50.637h8.326v174.651h-8.326z" fill="#fff" transform="matrix(.707 -.707 .707 .707 -63.242 123.244)" data-original="#FFF"/><path d="m133.799 29.822h8.326v174.651h-8.326z" fill="#d6d1cf" transform="matrix(.707 -.707 .707 .707 -42.428 131.866)" data-original="#D6D1CF" class="" data-old_color="#d6d1cf" style="fill:#F6F2F0"/><g fill="#690589"><path d="m175.953 204.655c-.512 0-1.024-.195-1.414-.586l-123.497-123.497c-.781-.781-.781-2.047 0-2.828l26.702-26.702c.78-.781 2.048-.781 2.828 0l123.497 123.497c.781.781.781 2.047 0 2.828l-26.702 26.702c-.39.39-.903.586-1.414.586zm-120.669-125.497 120.668 120.668 23.874-23.874-120.668-120.668z" data-original="#690589" class="" style="fill:#00BDF8" data-old_color="#690589"/><path d="m86.505 103.054c-.512 0-1.024-.195-1.414-.586l-8.7-8.7c-.781-.781-.781-2.047 0-2.828.78-.781 2.048-.781 2.828 0l8.7 8.7c.781.781.781 2.047 0 2.828-.39.391-.902.586-1.414.586z" data-original="#690589" class="" style="fill:#00BDF8" data-old_color="#690589"/><path d="m149.768 157.472c-2.058 0-3.992-.801-5.447-2.257l-44.426-44.425c-3.004-3.004-3.004-7.891 0-10.895s7.892-3.003 10.895 0l44.425 44.425c1.456 1.455 2.257 3.39 2.257 5.447s-.801 3.993-2.257 5.448c-1.455 1.455-3.39 2.257-5.447 2.257zm-44.426-55.832c-.948 0-1.897.361-2.619 1.083-1.444 1.444-1.444 3.794 0 5.239l44.425 44.425c1.398 1.399 3.839 1.399 5.237 0 .7-.7 1.085-1.63 1.085-2.619s-.385-1.919-1.085-2.619l-44.425-44.426c-.72-.722-1.669-1.083-2.618-1.083z" data-original="#690589" class="" style="fill:#00BDF8" data-old_color="#690589"/></g><path d="m221.114 250.244-26.77-26.77 6.155-22.975 22.975-6.155 26.77 26.77c4.309-14.642.689-31.122-10.864-42.675-16.829-16.829-44.113-16.829-60.941 0-16.829 16.829-16.829 44.113 0 60.941 11.552 11.553 28.032 15.173 42.675 10.864z" fill="#f4efed" data-original="#F4EFED" class="hovered-path active-path" data-old_color="#f4efed" style="fill:#FEFDFC"/><path d="m178.438 178.438c-.993.993-1.923 2.026-2.799 3.088 16.928-13.966 42.018-13.036 57.853 2.799 8.952 8.952 13.119 20.861 12.546 32.583l4.205 4.205c4.309-14.642.689-31.122-10.864-42.675-16.828-16.828-44.112-16.828-60.941 0z" fill="#d6d1cf" data-original="#D6D1CF" class="" data-old_color="#d6d1cf" style="fill:#F6F2F0"/><path d="m178.438 178.438c.993-.993 2.026-1.923 3.088-2.799-13.966 16.928-13.036 42.018 2.799 57.853 8.952 8.952 20.861 13.119 32.583 12.546l4.205 4.205c-14.642 4.309-31.122.689-42.675-10.864-16.828-16.828-16.828-44.112 0-60.941z" fill="#fff" data-original="#FFF"/><path d="m208.915 254.004c-11.796 0-23.309-4.628-31.891-13.21-17.582-17.581-17.582-46.188 0-63.77 17.581-17.582 46.188-17.582 63.77 0 11.681 11.68 16.037 28.791 11.368 44.654-.199.677-.741 1.199-1.424 1.374-.684.173-1.409-.025-1.908-.524l-25.953-25.953-20.745 5.557-5.557 20.745 25.953 25.953c.499.499.698 1.224.524 1.908s-.696 1.225-1.374 1.424c-4.207 1.238-8.504 1.842-12.763 1.842zm-.006-86.168c-10.523 0-21.045 4.005-29.057 12.016-16.021 16.022-16.021 42.091 0 58.113 9.828 9.827 23.874 13.967 37.35 11.194l-24.272-24.272c-.505-.505-.703-1.241-.518-1.932l6.154-22.976c.185-.69.724-1.229 1.415-1.415l22.976-6.154c.69-.184 1.426.012 1.932.518l24.272 24.272c2.771-13.476-1.367-27.522-11.194-37.35-8.012-8.008-18.535-12.014-29.058-12.014z" fill="#690589" data-original="#690589" class="" style="fill:#00BDF8" data-old_color="#690589"/><path d="m34.886 5.756 26.77 26.769-6.155 22.976-22.976 6.155-26.769-26.77c-4.309 14.643-.689 31.123 10.864 42.676 16.829 16.828 44.113 16.828 60.941 0 16.828-16.829 16.828-44.113 0-60.941-11.552-11.554-28.032-15.174-42.675-10.865z" fill="#f4efed" data-original="#F4EFED" class="hovered-path active-path" data-old_color="#f4efed" style="fill:#FEFDFC"/><path d="m77.562 77.562c.993-.993 1.923-2.026 2.799-3.088-16.928 13.966-42.018 13.036-57.854-2.799-8.951-8.953-13.118-20.862-12.546-32.584l-4.205-4.205c-4.309 14.643-.689 31.123 10.864 42.676 16.829 16.828 44.113 16.828 60.942 0z" fill="#fff" data-original="#FFF"/><path d="m77.562 77.562c-.993.993-2.026 1.923-3.088 2.799 13.966-16.928 13.036-42.018-2.799-57.854-8.953-8.951-20.862-13.118-32.584-12.546l-4.205-4.205c14.643-4.309 31.123-.689 42.676 10.864 16.828 16.829 16.828 44.113 0 60.942z" fill="#d6d1cf" data-original="#D6D1CF" class="" data-old_color="#d6d1cf" style="fill:#F6F2F0"/><path d="m47.091 92.162c-11.547 0-23.094-4.395-31.885-13.186-11.681-11.681-16.037-28.791-11.368-44.654.199-.677.741-1.199 1.424-1.374.685-.174 1.409.025 1.908.524l25.953 25.953 20.745-5.557 5.557-20.745-25.953-25.953c-.499-.499-.698-1.224-.524-1.908s.696-1.225 1.374-1.424c15.86-4.668 32.973-.312 44.654 11.368 17.582 17.581 17.582 46.188 0 63.77-8.791 8.791-20.338 13.186-31.885 13.186zm-40.251-53.364c-2.771 13.476 1.367 27.522 11.194 37.349 16.022 16.021 42.091 16.021 58.113 0 16.021-16.022 16.021-42.091 0-58.113-9.827-9.826-23.871-13.964-37.349-11.194l24.272 24.272c.505.505.703 1.241.518 1.932l-6.154 22.976c-.185.69-.724 1.229-1.415 1.415l-22.976 6.154c-.691.184-1.426-.013-1.932-.518z" fill="#690589" data-original="#690589" class="" style="fill:#00BDF8" data-old_color="#690589"/><path d="m109.564 40.229h37.762v174.651h-37.762z" fill="#f4efed" transform="matrix(.707 .707 -.707 .707 127.816 -53.464)" data-original="#F4EFED" class="hovered-path active-path" data-old_color="#f4efed" style="fill:#FEFDFC"/><path d="m102.199 145.734 44.425-44.425c2.228-2.228 5.839-2.228 8.067 0 2.228 2.228 2.228 5.839 0 8.067l-44.425 44.425c-2.228 2.228-5.839 2.228-8.067 0-2.228-2.228-2.228-5.839 0-8.067z" fill="#d6d1cf" data-original="#D6D1CF" class="" data-old_color="#d6d1cf" style="fill:#F6F2F0"/><path d="m30.712 112.985h174.651v8.326h-174.651z" fill="#fff" transform="matrix(.707 -.707 .707 .707 -48.263 117.777)" data-original="#FFF"/><path d="m51.527 133.799h174.651v8.326h-174.651z" fill="#d6d1cf" transform="matrix(.707 -.707 .707 .707 -56.885 138.592)" data-original="#D6D1CF" class="" data-old_color="#d6d1cf" style="fill:#F6F2F0"/><path d="m80.047 204.655c-.512 0-1.024-.195-1.414-.586l-26.702-26.702c-.781-.781-.781-2.047 0-2.828l123.497-123.497c.78-.781 2.048-.781 2.828 0l26.702 26.702c.781.781.781 2.047 0 2.828l-123.497 123.497c-.39.39-.902.586-1.414.586zm-23.873-28.702 23.874 23.874 120.668-120.669-23.874-23.874z" fill="#690589" data-original="#690589" class="" style="fill:#00BDF8" data-old_color="#690589"/><path d="m106.232 157.472c-2.058 0-3.993-.801-5.448-2.257-1.455-1.455-2.256-3.39-2.256-5.447s.801-3.992 2.257-5.447l44.425-44.425c3.003-3.003 7.891-3.004 10.895 0s3.004 7.891 0 10.895l-44.425 44.425c-1.455 1.454-3.39 2.256-5.448 2.256zm44.426-55.832c-.949 0-1.897.361-2.62 1.083l-44.425 44.425c-.7.699-1.085 1.629-1.085 2.619s.385 1.919 1.085 2.619c1.399 1.4 3.839 1.4 5.238 0l44.426-44.425c1.444-1.444 1.444-3.794 0-5.239-.722-.721-1.671-1.082-2.619-1.082zm-48.459 44.094h.01z" fill="#690589" data-original="#690589" class="" style="fill:#00BDF8" data-old_color="#690589"/><path d="m5.756 221.114 26.769-26.77 22.976 6.155 6.155 22.975-26.77 26.77c14.642 4.309 31.122.689 42.675-10.864 16.828-16.828 16.828-44.113 0-60.941-16.829-16.829-44.113-16.829-60.941 0-11.553 11.552-15.173 28.032-10.864 42.675z" fill="#f4efed" data-original="#F4EFED" class="hovered-path active-path" data-old_color="#f4efed" style="fill:#FEFDFC"/><path d="m77.562 178.438c-.993-.993-2.026-1.923-3.088-2.799 13.966 16.928 13.036 42.018-2.799 57.853-8.952 8.952-20.861 13.119-32.583 12.546l-4.205 4.205c14.642 4.309 31.122.689 42.675-10.864 16.828-16.828 16.828-44.112 0-60.941z" fill="#d6d1cf" data-original="#D6D1CF" class="" data-old_color="#d6d1cf" style="fill:#F6F2F0"/><path d="m77.562 178.438c.993.993 1.923 2.026 2.799 3.088-16.928-13.966-42.018-13.036-57.854 2.799-8.952 8.952-13.119 20.861-12.546 32.583l-4.205 4.205c-4.309-14.642-.689-31.122 10.864-42.675 16.829-16.828 44.113-16.828 60.942 0z" fill="#fff" data-original="#FFF"/><path d="m47.085 254.004c-4.26 0-8.555-.603-12.763-1.842-.677-.199-1.199-.741-1.374-1.424-.174-.684.025-1.409.524-1.908l25.953-25.953-5.557-20.745-20.745-5.557-25.953 25.953c-.498.5-1.223.698-1.908.524-.684-.174-1.225-.696-1.424-1.374-4.668-15.863-.312-32.974 11.368-44.654 17.581-17.582 46.188-17.582 63.77 0 17.582 17.581 17.582 46.188 0 63.77-8.581 8.581-20.096 13.209-31.891 13.21zm-8.287-4.844c13.475 2.768 27.521-1.367 37.349-11.194 16.021-16.022 16.021-42.091 0-58.113-16.022-16.021-42.091-16.021-58.113 0-9.827 9.828-13.965 23.874-11.194 37.35l24.272-24.272c.505-.506 1.242-.701 1.932-.518l22.976 6.154c.69.185 1.229.724 1.415 1.415l6.154 22.976c.185.69-.013 1.427-.518 1.932z" fill="#690589" data-original="#690589" class="" style="fill:#00BDF8" data-old_color="#690589"/><path d="m250.244 34.886-26.77 26.77-22.975-6.155-6.155-22.976 26.77-26.769c-14.642-4.309-31.122-.689-42.675 10.864-16.829 16.829-16.829 44.113 0 60.941s44.113 16.828 60.941 0c11.553-11.552 15.173-28.032 10.864-42.675z" fill="#f4efed" data-original="#F4EFED" class="hovered-path active-path" data-old_color="#f4efed" style="fill:#FEFDFC"/><path d="m178.438 77.562c.993.993 2.026 1.923 3.088 2.799-13.966-16.928-13.036-42.018 2.799-57.854 8.952-8.952 20.861-13.119 32.583-12.546l4.205-4.205c-14.642-4.309-31.122-.689-42.675 10.864-16.828 16.829-16.828 44.113 0 60.942z" fill="#fff" data-original="#FFF"/><path d="m178.438 77.562c-.993-.993-1.923-2.026-2.799-3.088 16.928 13.966 42.018 13.036 57.853-2.799 8.952-8.952 13.119-20.861 12.546-32.583l4.205-4.205c4.309 14.642.689 31.122-10.864 42.675-16.828 16.828-44.112 16.828-60.941 0z" fill="#d6d1cf" data-original="#D6D1CF" class="" data-old_color="#d6d1cf" style="fill:#F6F2F0"/><path d="m208.909 92.162c-11.547 0-23.094-4.395-31.885-13.186-17.582-17.581-17.582-46.188 0-63.77 11.68-11.681 28.792-16.038 44.654-11.368.677.199 1.199.741 1.374 1.424.174.684-.025 1.409-.524 1.908l-25.953 25.953 5.557 20.745 20.745 5.557 25.953-25.953c.499-.499 1.225-.697 1.908-.524.684.174 1.225.696 1.424 1.374 4.668 15.863.312 32.974-11.368 44.654-8.791 8.791-20.338 13.186-31.885 13.186zm.007-86.166c-10.751 0-21.242 4.217-29.063 12.038-16.021 16.022-16.021 42.091 0 58.113 16.022 16.021 42.091 16.021 58.113 0 9.827-9.828 13.965-23.874 11.194-37.35l-24.272 24.273c-.505.506-1.242.7-1.932.518l-22.976-6.154c-.69-.185-1.229-.724-1.415-1.415l-6.154-22.976c-.185-.69.013-1.427.518-1.932l24.273-24.271c-2.751-.566-5.528-.844-8.286-.844z" fill="#690589" data-original="#690589" class="" style="fill:#00BDF8" data-old_color="#690589"/></g> </svg>
